<svg xmlns="http://www.w3.org/2000/svg" viewBox="0 0 500 410" width="500" height="410" role="img" aria-labelledby="ttl desc">
  <title id="ttl">The loop that compounds — four-step co-evolution loop</title>
  <desc id="desc">Four panels on a circle, clockwise: 01 INITIALIZE (/daily, /resume) at twelve o'clock loads what the agent knows; 02 CAPTURE (/braindump) at three o'clock; 03 EVOLVE (/distill, /learn) at six o'clock; 04 WRAPUP (/wrapup, /recap) at nine o'clock promotes lessons to memory. Dashed arrows travel clockwise — every loop the agent starts smarter.</desc>
  <defs>
    <marker id="arrow" viewBox="0 0 3 2" refX="0" refY="1" markerWidth="3" markerHeight="2" orient="auto">
      <path d="M0 0 L3 1 L0 2 Z" fill="#5f7d00"/>
    </marker>
    <symbol id="i-init" viewBox="0 0 24 24"><path d="M12 2v10"/><path d="M18.4 6.6a9 9 0 1 1-12.77.04"/></symbol>
    <symbol id="i-capture" viewBox="0 0 24 24"><path d="M12 20h9"/><path d="M16.5 3.5a2.12 2.12 0 0 1 3 3L7 19l-4 1 1-4Z"/></symbol>
    <symbol id="i-learn" viewBox="0 0 24 24"><path d="M9 18h6"/><path d="M10 22h4"/><path d="M15.09 14c.18-.98.65-1.74 1.41-2.5A4.65 4.65 0 0 0 18 8 6 6 0 0 0 6 8c0 1 .23 2.23 1.5 3.5A4.6 4.6 0 0 1 8.91 14"/></symbol>
    <symbol id="i-recap" viewBox="0 0 24 24"><polyline points="1 4 1 10 7 10"/><path d="M3.51 15a9 9 0 1 0 2.13-9.36L1 10"/></symbol>
  </defs>
  <style>
    .ico { fill: none; stroke-width: 1.75; stroke-linecap: round; stroke-linejoin: round; }
    /* MOTION RULE: cards never animate — motion is ONLY this connector dash-flow. */
    .plug { fill: none; stroke: #5f7d00; stroke-width: 1.5; stroke-linecap: round; stroke-dasharray: 5 7; }
    .plug-flow { animation: plug-flow 1200ms linear infinite; }
    @keyframes plug-flow { to { stroke-dashoffset: -24; } }
    @media (prefers-reduced-motion: reduce) {
      .plug-flow { animation: none; }
    }
  </style>
  <path class="plug" d="M334.4 74.0 A155 155 0 0 1 380.0 119.6" opacity="0.22"/>
  <path class="plug plug-flow" d="M334.4 74.0 A155 155 0 0 1 380.0 119.6" style="animation-delay:0ms" marker-end="url(#arrow)"/>
  <path class="plug" d="M380.0 288.4 A155 155 0 0 1 334.4 334.0" opacity="0.22"/>
  <path class="plug plug-flow" d="M380.0 288.4 A155 155 0 0 1 334.4 334.0" style="animation-delay:300ms" marker-end="url(#arrow)"/>
  <path class="plug" d="M165.6 334.0 A155 155 0 0 1 120.0 288.4" opacity="0.22"/>
  <path class="plug plug-flow" d="M165.6 334.0 A155 155 0 0 1 120.0 288.4" style="animation-delay:600ms" marker-end="url(#arrow)"/>
  <path class="plug" d="M120.0 119.6 A155 155 0 0 1 165.6 74.0" opacity="0.22"/>
  <path class="plug plug-flow" d="M120.0 119.6 A155 155 0 0 1 165.6 74.0" style="animation-delay:900ms" marker-end="url(#arrow)"/>
  <!-- INITIALIZE -->
  <rect x="171.0" y="16.0" width="158" height="66" fill="#fafafe" stroke="#08081014" stroke-width="1"/>
  <rect x="170.5" y="15.5" width="2" height="67" fill="#5f7d00"/>
    <path transform="translate(272.25 33.14) scale(0.00829 -0.00829)" d="M304.0 -10Q198.0 -10 135.0 46.0Q72.0 102 72.0 200H162.0Q162.0 139 201.0 104.5Q240.0 70 304.0 70Q366.0 70 403.0 106.0Q440.0 142 440.0 200Q440.0 244 416.5 276.5Q393.0 309 349.0 321L238.0 352Q169.0 372 129.5 423.5Q90.0 475 90.0 545Q90.0 603 116.0 647.0Q142.0 691 189.0 715.5Q236.0 740 297.0 740Q359.0 740 406.5 715.5Q454.0 691 481.0 647.5Q508.0 604 508.0 547H418.0Q418.0 597 384.0 628.5Q350.0 660 297.0 660Q244.0 660 211.0 628.5Q178.0 597 178.0 547Q178.0 507 199.5 478.5Q221.0 450 260.0 439L374.0 407Q447.0 387 487.5 331.5Q528.0 276 528.0 200Q528.0 104 467.0 47.0Q406.0 -10 304.0 -10ZM1115.0 0V648H915.0V730H1405.0V648H1205.0V0ZM1820.0 0V730H2240.0V648H1909.0V422H2205.0V342H1909.0V82H2240.0V0ZM2672.0 0V730H2907.0Q3009.0 730 3069.5 671.5Q3130.0 613 3130.0 515Q3130.0 417 3069.5 358.5Q3009.0 300 2907.0 300H2762.0V0ZM2762.0 381H2907.0Q2966.0 381 3001.5 417.5Q3037.0 454 3037.0 515Q3037.0 577 3001.5 613.0Q2966.0 649 2907.0 649H2762.0ZM3500.0 -100V-25H3980.0V-100ZM4600.0 -10Q4499.0 -10 4439.5 48.5Q4380.0 107 4380.0 205V525Q4380.0 623 4439.5 681.5Q4499.0 740 4600.0 740Q4701.0 740 4760.5 681.5Q4820.0 623 4820.0 525V205Q4820.0 140 4793.0 91.5Q4766.0 43 4716.5 16.5Q4667.0 -10 4600.0 -10ZM4600.0 67Q4660.0 67 4696.5 105.5Q4733.0 144 4733.0 205V525Q4733.0 586 4696.5 624.5Q4660.0 663 4600.0 663Q4540.0 663 4503.5 624.5Q4467.0 586 4467.0 525V205Q4467.0 144 4503.5 105.5Q4540.0 67 4600.0 67ZM4600.0 310Q4573.0 310 4556.5 325.0Q4540.0 340 4540.0 368Q4540.0 395 4556.5 409.5Q4573.0 424 4600.0 424Q4627.0 424 4643.5 409.5Q4660.0 395 4660.0 368Q4660.0 340 4643.5 325.0Q4627.0 310 4600.0 310ZM5250.0 0V82H5448.0V652L5250.0 504V607L5415.0 730H5538.0V82H5700.0V0Z" fill="#0a0a1299"/>
  <svg x="187.0" y="38.0" width="18" height="18"><use href="#i-init" class="ico" stroke="#5f7d00"/></svg>
    <path transform="translate(214.29 53.00) scale(0.02143 -0.02143)" d="M150.0 700H286.0L162.0 0H26.0ZM421.0 700H543.0L772.0 225H774.0L857.0 700H988.0L864.0 0H742.0L515.0 474H513.0L429.0 0H298.0ZM1123.0 700H1259.0L1135.0 0H999.0ZM1533.0 585H1324.0L1344.0 700H1898.0L1877.0 585H1669.0L1566.0 0H1430.0ZM1983.0 700H2119.0L1995.0 0H1859.0ZM2449.0 700H2573.0L2706.0 0H2568.0L2540.0 155H2294.0L2208.0 0H2070.0ZM2527.0 267 2482.0 533H2480.0L2342.0 267ZM2900.0 700H3036.0L2933.0 115H3282.0L3262.0 0H2777.0ZM3466.0 700H3602.0L3478.0 0H3342.0ZM3602.0 108 4045.0 584V586H3696.0L3716.0 700H4228.0L4209.0 592L3766.0 116V114H4125.0L4105.0 0H3583.0ZM4329.0 700H4834.0L4814.0 585H4445.0L4414.0 408H4754.0L4734.0 295H4394.0L4362.0 115H4731.0L4711.0 0H4206.0Z" fill="#0a0a12"/>
    <path transform="translate(214.38 69.99) scale(0.00842 -0.00842)" d="M75.0 -110 430.0 830H525.0L170.0 -110ZM928.0 -10Q846.0 -10 796.5 45.0Q747.0 100 747.0 194V355Q747.0 450 796.0 505.0Q845.0 560 928.0 560Q990.0 560 1030.5 529.0Q1071.0 498 1079.0 445H1080.0L1078.0 570V730H1168.0V0H1078.0V105H1077.0Q1070.0 51 1030.0 20.5Q990.0 -10 928.0 -10ZM958.0 68Q1014.0 68 1046.0 103.0Q1078.0 138 1078.0 200V350Q1078.0 412 1046.0 447.0Q1014.0 482 958.0 482Q901.0 482 869.0 452.5Q837.0 423 837.0 355V195Q837.0 128 869.0 98.0Q901.0 68 958.0 68ZM1572.0 -10Q1487.0 -10 1437.0 37.5Q1387.0 85 1387.0 162Q1387.0 213 1410.0 251.0Q1433.0 289 1474.0 310.5Q1515.0 332 1568.0 332H1738.0V375Q1738.0 482 1621.0 482Q1569.0 482 1537.0 463.0Q1505.0 444 1503.0 410H1413.0Q1418.0 475 1473.5 517.5Q1529.0 560 1621.0 560Q1721.0 560 1774.5 512.0Q1828.0 464 1828.0 378V0H1739.0V100H1737.0Q1729.0 49 1686.0 19.5Q1643.0 -10 1572.0 -10ZM1594.0 66Q1660.0 66 1699.0 98.0Q1738.0 130 1738.0 185V262H1578.0Q1534.0 262 1506.5 235.5Q1479.0 209 1479.0 165Q1479.0 119 1509.5 92.5Q1540.0 66 1594.0 66ZM2065.0 0V82H2260.0V468H2085.0V550H2350.0V82H2535.0V0ZM2295.0 649Q2262.0 649 2243.0 666.0Q2224.0 683 2224.0 712Q2224.0 742 2243.0 759.5Q2262.0 777 2295.0 777Q2328.0 777 2347.0 759.5Q2366.0 742 2366.0 712Q2366.0 683 2347.0 666.0Q2328.0 649 2295.0 649ZM3020.0 0Q2947.0 0 2903.5 42.5Q2860.0 85 2860.0 155V648H2670.0V730H2950.0V155Q2950.0 121 2969.0 101.5Q2988.0 82 3020.0 82H3190.0V0ZM3478.0 -180 3559.0 34 3354.0 550H3451.0L3581.0 210Q3589.0 190 3596.0 168.0Q3603.0 146 3606.0 130Q3609.0 146 3616.0 168.0Q3623.0 190 3630.0 210L3751.0 550H3846.0L3572.0 -180ZM4920.0 260Q4883.0 260 4860.5 282.0Q4838.0 304 4838.0 339Q4838.0 376 4860.5 399.0Q4883.0 422 4920.0 422Q4957.0 422 4979.5 399.0Q5002.0 376 5002.0 339Q5002.0 304 4979.5 282.0Q4957.0 260 4920.0 260ZM6015.0 -110 6370.0 830H6465.0L6110.0 -110ZM6712.0 0V550H6802.0V445H6804.0Q6811.0 498 6849.0 529.0Q6887.0 560 6951.0 560Q7037.0 560 7083.5 508.5Q7130.0 457 7130.0 362V315H7040.0V362Q7040.0 482 6923.0 482Q6864.0 482 6833.0 448.0Q6802.0 414 6802.0 350V0ZM7560.0 -10Q7463.0 -10 7403.5 48.5Q7344.0 107 7344.0 210V340Q7344.0 443 7403.5 501.5Q7463.0 560 7560.0 560Q7625.0 560 7673.5 534.0Q7722.0 508 7749.0 461.0Q7776.0 414 7776.0 350V252H7432.0V200Q7432.0 139 7467.0 103.5Q7502.0 68 7560.0 68Q7610.0 68 7642.5 87.5Q7675.0 107 7682.0 140H7772.0Q7763.0 71 7705.0 30.5Q7647.0 -10 7560.0 -10ZM7432.0 322H7688.0V350Q7688.0 415 7654.5 450.5Q7621.0 486 7560.0 486Q7499.0 486 7465.5 450.5Q7432.0 415 7432.0 350ZM8198.0 -8Q8106.0 -8 8055.5 33.5Q8005.0 75 8005.0 151H8095.0Q8095.0 113 8122.0 91.5Q8149.0 70 8198.0 70H8242.0Q8292.0 70 8319.5 92.0Q8347.0 114 8347.0 154Q8347.0 225 8282.0 234L8130.0 256Q8074.0 264 8043.0 302.5Q8012.0 341 8012.0 404Q8012.0 476 8061.5 517.0Q8111.0 558 8198.0 558H8242.0Q8322.0 558 8372.5 518.5Q8423.0 479 8427.0 415H8336.0Q8334.0 444 8308.5 463.0Q8283.0 482 8242.0 482H8198.0Q8152.0 482 8126.0 461.0Q8100.0 440 8100.0 404Q8100.0 346 8153.0 338L8295.0 318Q8435.0 298 8435.0 154Q8435.0 77 8384.5 34.5Q8334.0 -8 8242.0 -8ZM8879.0 -10Q8784.0 -10 8727.0 46.5Q8670.0 103 8670.0 200V550H8760.0V200Q8760.0 140 8792.0 104.5Q8824.0 69 8879.0 69Q8935.0 69 8967.5 104.5Q9000.0 140 9000.0 200V550H9090.0V200Q9090.0 103 9032.0 46.5Q8974.0 -10 8879.0 -10ZM9300.0 0V550H9378.0V477H9380.0Q9385.0 514 9409.5 537.0Q9434.0 560 9472.0 560Q9508.0 560 9533.0 539.0Q9558.0 518 9569.0 482H9570.0Q9577.0 518 9601.5 539.0Q9626.0 560 9664.0 560Q9717.0 560 9748.5 520.5Q9780.0 481 9780.0 418V0H9696.0V419Q9696.0 452 9680.0 471.5Q9664.0 491 9636.0 491Q9609.0 491 9593.0 472.0Q9577.0 453 9577.0 420V0H9503.0V419Q9503.0 452 9487.0 471.5Q9471.0 491 9444.0 491Q9416.0 491 9400.0 472.0Q9384.0 453 9384.0 420V0ZM10200.0 -10Q10103.0 -10 10043.5 48.5Q9984.0 107 9984.0 210V340Q9984.0 443 10043.5 501.5Q10103.0 560 10200.0 560Q10265.0 560 10313.5 534.0Q10362.0 508 10389.0 461.0Q10416.0 414 10416.0 350V252H10072.0V200Q10072.0 139 10107.0 103.5Q10142.0 68 10200.0 68Q10250.0 68 10282.5 87.5Q10315.0 107 10322.0 140H10412.0Q10403.0 71 10345.0 30.5Q10287.0 -10 10200.0 -10ZM10072.0 322H10328.0V350Q10328.0 415 10294.5 450.5Q10261.0 486 10200.0 486Q10139.0 486 10105.5 450.5Q10072.0 415 10072.0 350Z" fill="#0a0a1299"/>
  <!-- CAPTURE -->
  <rect x="326.0" y="171.0" width="158" height="66" fill="#fafafe" stroke="#08081014" stroke-width="1"/>
  <rect x="325.5" y="170.5" width="2" height="67" fill="#5f7d00"/>
    <path transform="translate(427.25 188.14) scale(0.00829 -0.00829)" d="M304.0 -10Q198.0 -10 135.0 46.0Q72.0 102 72.0 200H162.0Q162.0 139 201.0 104.5Q240.0 70 304.0 70Q366.0 70 403.0 106.0Q440.0 142 440.0 200Q440.0 244 416.5 276.5Q393.0 309 349.0 321L238.0 352Q169.0 372 129.5 423.5Q90.0 475 90.0 545Q90.0 603 116.0 647.0Q142.0 691 189.0 715.5Q236.0 740 297.0 740Q359.0 740 406.5 715.5Q454.0 691 481.0 647.5Q508.0 604 508.0 547H418.0Q418.0 597 384.0 628.5Q350.0 660 297.0 660Q244.0 660 211.0 628.5Q178.0 597 178.0 547Q178.0 507 199.5 478.5Q221.0 450 260.0 439L374.0 407Q447.0 387 487.5 331.5Q528.0 276 528.0 200Q528.0 104 467.0 47.0Q406.0 -10 304.0 -10ZM1115.0 0V648H915.0V730H1405.0V648H1205.0V0ZM1820.0 0V730H2240.0V648H1909.0V422H2205.0V342H1909.0V82H2240.0V0ZM2672.0 0V730H2907.0Q3009.0 730 3069.5 671.5Q3130.0 613 3130.0 515Q3130.0 417 3069.5 358.5Q3009.0 300 2907.0 300H2762.0V0ZM2762.0 381H2907.0Q2966.0 381 3001.5 417.5Q3037.0 454 3037.0 515Q3037.0 577 3001.5 613.0Q2966.0 649 2907.0 649H2762.0ZM3500.0 -100V-25H3980.0V-100ZM4600.0 -10Q4499.0 -10 4439.5 48.5Q4380.0 107 4380.0 205V525Q4380.0 623 4439.5 681.5Q4499.0 740 4600.0 740Q4701.0 740 4760.5 681.5Q4820.0 623 4820.0 525V205Q4820.0 140 4793.0 91.5Q4766.0 43 4716.5 16.5Q4667.0 -10 4600.0 -10ZM4600.0 67Q4660.0 67 4696.5 105.5Q4733.0 144 4733.0 205V525Q4733.0 586 4696.5 624.5Q4660.0 663 4600.0 663Q4540.0 663 4503.5 624.5Q4467.0 586 4467.0 525V205Q4467.0 144 4503.5 105.5Q4540.0 67 4600.0 67ZM4600.0 310Q4573.0 310 4556.5 325.0Q4540.0 340 4540.0 368Q4540.0 395 4556.5 409.5Q4573.0 424 4600.0 424Q4627.0 424 4643.5 409.5Q4660.0 395 4660.0 368Q4660.0 340 4643.5 325.0Q4627.0 310 4600.0 310ZM5246.0 0V83L5489.0 343Q5542.0 399 5564.0 443.0Q5586.0 487 5586.0 529Q5586.0 589 5551.5 624.5Q5517.0 660 5458.0 660Q5397.0 660 5361.5 623.5Q5326.0 587 5326.0 525H5236.0Q5239.0 624 5299.0 682.0Q5359.0 740 5458.0 740Q5559.0 740 5618.5 683.0Q5678.0 626 5678.0 528Q5678.0 476 5649.5 418.0Q5621.0 360 5552.0 288L5355.0 82H5687.0V0Z" fill="#0a0a1299"/>
  <svg x="342.0" y="193.0" width="18" height="18"><use href="#i-capture" class="ico" stroke="#5f7d00"/></svg>
    <path transform="translate(369.29 208.00) scale(0.02143 -0.02143)" d="M33.0 124 116.0 593 241.0 700H582.0L683.0 579L665.0 480H529.0L539.0 537L501.0 584H301.0L241.0 533L176.0 167L218.0 116H418.0L473.0 163L484.0 220H620.0L599.0 105L476.0 0H135.0ZM995.0 700H1119.0L1252.0 0H1114.0L1086.0 155H840.0L754.0 0H616.0ZM1073.0 267 1028.0 533H1026.0L888.0 267ZM1446.0 700H1876.0L1971.0 584L1927.0 336L1812.0 238H1501.0L1459.0 0H1323.0ZM1761.0 352 1802.0 387 1831.0 551 1802.0 586H1562.0L1521.0 352ZM2231.0 585H2022.0L2042.0 700H2596.0L2575.0 585H2367.0L2264.0 0H2128.0ZM2575.0 128 2676.0 700H2812.0L2718.0 167L2760.0 116H2955.0L3015.0 167L3109.0 700H3245.0L3141.0 110L3012.0 0H2681.0ZM3864.0 372 3788.0 307 3843.0 232 3802.0 0H3666.0L3702.0 207L3658.0 268H3436.0L3389.0 0H3253.0L3376.0 700H3806.0L3901.0 584ZM3456.0 380H3696.0L3737.0 415L3761.0 551L3732.0 586H3492.0ZM4051.0 700H4556.0L4536.0 585H4167.0L4136.0 408H4476.0L4456.0 295H4116.0L4084.0 115H4453.0L4433.0 0H3928.0Z" fill="#0a0a12"/>
    <path transform="translate(369.38 224.99) scale(0.00842 -0.00842)" d="M75.0 -110 430.0 830H525.0L170.0 -110ZM992.0 -10Q930.0 -10 890.0 20.5Q850.0 51 843.0 105H842.0V0H752.0V730H842.0V570L840.0 445H841.0Q849.0 498 889.5 529.0Q930.0 560 992.0 560Q1075.0 560 1124.0 505.0Q1173.0 450 1173.0 355V194Q1173.0 100 1124.0 45.0Q1075.0 -10 992.0 -10ZM962.0 68Q1019.0 68 1051.0 98.0Q1083.0 128 1083.0 195V355Q1083.0 423 1051.0 452.5Q1019.0 482 962.0 482Q907.0 482 874.5 447.0Q842.0 412 842.0 350V200Q842.0 138 874.5 103.0Q907.0 68 962.0 68ZM1432.0 0V550H1522.0V445H1524.0Q1531.0 498 1569.0 529.0Q1607.0 560 1671.0 560Q1757.0 560 1803.5 508.5Q1850.0 457 1850.0 362V315H1760.0V362Q1760.0 482 1643.0 482Q1584.0 482 1553.0 448.0Q1522.0 414 1522.0 350V0ZM2232.0 -10Q2147.0 -10 2097.0 37.5Q2047.0 85 2047.0 162Q2047.0 213 2070.0 251.0Q2093.0 289 2134.0 310.5Q2175.0 332 2228.0 332H2398.0V375Q2398.0 482 2281.0 482Q2229.0 482 2197.0 463.0Q2165.0 444 2163.0 410H2073.0Q2078.0 475 2133.5 517.5Q2189.0 560 2281.0 560Q2381.0 560 2434.5 512.0Q2488.0 464 2488.0 378V0H2399.0V100H2397.0Q2389.0 49 2346.0 19.5Q2303.0 -10 2232.0 -10ZM2254.0 66Q2320.0 66 2359.0 98.0Q2398.0 130 2398.0 185V262H2238.0Q2194.0 262 2166.5 235.5Q2139.0 209 2139.0 165Q2139.0 119 2169.5 92.5Q2200.0 66 2254.0 66ZM2725.0 0V82H2920.0V468H2745.0V550H3010.0V82H3195.0V0ZM2955.0 649Q2922.0 649 2903.0 666.0Q2884.0 683 2884.0 712Q2884.0 742 2903.0 759.5Q2922.0 777 2955.0 777Q2988.0 777 3007.0 759.5Q3026.0 742 3026.0 712Q3026.0 683 3007.0 666.0Q2988.0 649 2955.0 649ZM3392.0 0V550H3482.0V445H3483.0Q3490.0 500 3528.0 530.0Q3566.0 560 3629.0 560Q3712.0 560 3761.0 509.0Q3810.0 458 3810.0 370V0H3720.0V354Q3720.0 417 3688.5 450.5Q3657.0 484 3603.0 484Q3547.0 484 3514.5 449.0Q3482.0 414 3482.0 350V0ZM4228.0 -10Q4146.0 -10 4096.5 45.0Q4047.0 100 4047.0 194V355Q4047.0 450 4096.0 505.0Q4145.0 560 4228.0 560Q4290.0 560 4330.5 529.0Q4371.0 498 4379.0 445H4380.0L4378.0 570V730H4468.0V0H4378.0V105H4377.0Q4370.0 51 4330.0 20.5Q4290.0 -10 4228.0 -10ZM4258.0 68Q4314.0 68 4346.0 103.0Q4378.0 138 4378.0 200V350Q4378.0 412 4346.0 447.0Q4314.0 482 4258.0 482Q4201.0 482 4169.0 452.5Q4137.0 423 4137.0 355V195Q4137.0 128 4169.0 98.0Q4201.0 68 4258.0 68ZM4919.0 -10Q4824.0 -10 4767.0 46.5Q4710.0 103 4710.0 200V550H4800.0V200Q4800.0 140 4832.0 104.5Q4864.0 69 4919.0 69Q4975.0 69 5007.5 104.5Q5040.0 140 5040.0 200V550H5130.0V200Q5130.0 103 5072.0 46.5Q5014.0 -10 4919.0 -10ZM5340.0 0V550H5418.0V477H5420.0Q5425.0 514 5449.5 537.0Q5474.0 560 5512.0 560Q5548.0 560 5573.0 539.0Q5598.0 518 5609.0 482H5610.0Q5617.0 518 5641.5 539.0Q5666.0 560 5704.0 560Q5757.0 560 5788.5 520.5Q5820.0 481 5820.0 418V0H5736.0V419Q5736.0 452 5720.0 471.5Q5704.0 491 5676.0 491Q5649.0 491 5633.0 472.0Q5617.0 453 5617.0 420V0H5543.0V419Q5543.0 452 5527.0 471.5Q5511.0 491 5484.0 491Q5456.0 491 5440.0 472.0Q5424.0 453 5424.0 420V0ZM6032.0 -180V550H6122.0V445H6123.0Q6130.0 499 6170.0 529.5Q6210.0 560 6272.0 560Q6355.0 560 6404.0 505.5Q6453.0 451 6453.0 356V195Q6453.0 100 6404.0 45.0Q6355.0 -10 6272.0 -10Q6210.0 -10 6170.0 21.0Q6130.0 52 6123.0 105H6120.0L6122.0 -20V-180ZM6242.0 68Q6299.0 68 6331.0 98.0Q6363.0 128 6363.0 195V355Q6363.0 423 6331.0 452.5Q6299.0 482 6242.0 482Q6187.0 482 6154.5 447.0Q6122.0 412 6122.0 350V200Q6122.0 138 6154.5 103.0Q6187.0 68 6242.0 68Z" fill="#0a0a1299"/>
  <!-- EVOLVE -->
  <rect x="171.0" y="326.0" width="158" height="66" fill="#fafafe" stroke="#08081014" stroke-width="1"/>
  <rect x="170.5" y="325.5" width="2" height="67" fill="#5f7d00"/>
    <path transform="translate(272.25 343.14) scale(0.00829 -0.00829)" d="M304.0 -10Q198.0 -10 135.0 46.0Q72.0 102 72.0 200H162.0Q162.0 139 201.0 104.5Q240.0 70 304.0 70Q366.0 70 403.0 106.0Q440.0 142 440.0 200Q440.0 244 416.5 276.5Q393.0 309 349.0 321L238.0 352Q169.0 372 129.5 423.5Q90.0 475 90.0 545Q90.0 603 116.0 647.0Q142.0 691 189.0 715.5Q236.0 740 297.0 740Q359.0 740 406.5 715.5Q454.0 691 481.0 647.5Q508.0 604 508.0 547H418.0Q418.0 597 384.0 628.5Q350.0 660 297.0 660Q244.0 660 211.0 628.5Q178.0 597 178.0 547Q178.0 507 199.5 478.5Q221.0 450 260.0 439L374.0 407Q447.0 387 487.5 331.5Q528.0 276 528.0 200Q528.0 104 467.0 47.0Q406.0 -10 304.0 -10ZM1115.0 0V648H915.0V730H1405.0V648H1205.0V0ZM1820.0 0V730H2240.0V648H1909.0V422H2205.0V342H1909.0V82H2240.0V0ZM2672.0 0V730H2907.0Q3009.0 730 3069.5 671.5Q3130.0 613 3130.0 515Q3130.0 417 3069.5 358.5Q3009.0 300 2907.0 300H2762.0V0ZM2762.0 381H2907.0Q2966.0 381 3001.5 417.5Q3037.0 454 3037.0 515Q3037.0 577 3001.5 613.0Q2966.0 649 2907.0 649H2762.0ZM3500.0 -100V-25H3980.0V-100ZM4600.0 -10Q4499.0 -10 4439.5 48.5Q4380.0 107 4380.0 205V525Q4380.0 623 4439.5 681.5Q4499.0 740 4600.0 740Q4701.0 740 4760.5 681.5Q4820.0 623 4820.0 525V205Q4820.0 140 4793.0 91.5Q4766.0 43 4716.5 16.5Q4667.0 -10 4600.0 -10ZM4600.0 67Q4660.0 67 4696.5 105.5Q4733.0 144 4733.0 205V525Q4733.0 586 4696.5 624.5Q4660.0 663 4600.0 663Q4540.0 663 4503.5 624.5Q4467.0 586 4467.0 525V205Q4467.0 144 4503.5 105.5Q4540.0 67 4600.0 67ZM4600.0 310Q4573.0 310 4556.5 325.0Q4540.0 340 4540.0 368Q4540.0 395 4556.5 409.5Q4573.0 424 4600.0 424Q4627.0 424 4643.5 409.5Q4660.0 395 4660.0 368Q4660.0 340 4643.5 325.0Q4627.0 310 4600.0 310ZM5449.0 -10Q5348.0 -10 5289.0 46.5Q5230.0 103 5230.0 200H5320.0Q5320.0 140 5355.0 105.0Q5390.0 70 5450.0 70Q5510.0 70 5545.0 105.0Q5580.0 140 5580.0 200V250Q5580.0 310 5545.0 345.0Q5510.0 380 5450.0 380H5371.0V458L5550.0 648H5250.0V730H5652.0V646L5476.0 459Q5566.0 452 5618.0 396.5Q5670.0 341 5670.0 250V200Q5670.0 103 5610.5 46.5Q5551.0 -10 5449.0 -10Z" fill="#0a0a1299"/>
  <svg x="187.0" y="348.0" width="18" height="18"><use href="#i-learn" class="ico" stroke="#5f7d00"/></svg>
    <path transform="translate(214.29 363.00) scale(0.02143 -0.02143)" d="M145.0 700H650.0L630.0 585H261.0L230.0 408H570.0L550.0 295H210.0L178.0 115H547.0L527.0 0H22.0ZM696.0 700H830.0L909.0 162H911.0L1180.0 700H1326.0L954.0 0H822.0ZM1289.0 124 1372.0 593 1497.0 700H1857.0L1959.0 577L1875.0 103L1753.0 0H1391.0ZM1690.0 116 1750.0 167 1815.0 533 1773.0 584H1558.0L1498.0 533L1432.0 167L1474.0 116ZM2101.0 700H2237.0L2134.0 115H2483.0L2463.0 0H1978.0ZM2607.0 700H2741.0L2820.0 162H2822.0L3091.0 700H3237.0L2865.0 0H2733.0ZM3312.0 700H3817.0L3797.0 585H3428.0L3397.0 408H3737.0L3717.0 295H3377.0L3345.0 115H3714.0L3694.0 0H3189.0Z" fill="#0a0a12"/>
    <path transform="translate(214.38 379.99) scale(0.00842 -0.00842)" d="M75.0 -110 430.0 830H525.0L170.0 -110ZM928.0 -10Q846.0 -10 796.5 45.0Q747.0 100 747.0 194V355Q747.0 450 796.0 505.0Q845.0 560 928.0 560Q990.0 560 1030.5 529.0Q1071.0 498 1079.0 445H1080.0L1078.0 570V730H1168.0V0H1078.0V105H1077.0Q1070.0 51 1030.0 20.5Q990.0 -10 928.0 -10ZM958.0 68Q1014.0 68 1046.0 103.0Q1078.0 138 1078.0 200V350Q1078.0 412 1046.0 447.0Q1014.0 482 958.0 482Q901.0 482 869.0 452.5Q837.0 423 837.0 355V195Q837.0 128 869.0 98.0Q901.0 68 958.0 68ZM1405.0 0V82H1600.0V468H1425.0V550H1690.0V82H1875.0V0ZM1635.0 649Q1602.0 649 1583.0 666.0Q1564.0 683 1564.0 712Q1564.0 742 1583.0 759.5Q1602.0 777 1635.0 777Q1668.0 777 1687.0 759.5Q1706.0 742 1706.0 712Q1706.0 683 1687.0 666.0Q1668.0 649 1635.0 649ZM2258.0 -8Q2166.0 -8 2115.5 33.5Q2065.0 75 2065.0 151H2155.0Q2155.0 113 2182.0 91.5Q2209.0 70 2258.0 70H2302.0Q2352.0 70 2379.5 92.0Q2407.0 114 2407.0 154Q2407.0 225 2342.0 234L2190.0 256Q2134.0 264 2103.0 302.5Q2072.0 341 2072.0 404Q2072.0 476 2121.5 517.0Q2171.0 558 2258.0 558H2302.0Q2382.0 558 2432.5 518.5Q2483.0 479 2487.0 415H2396.0Q2394.0 444 2368.5 463.0Q2343.0 482 2302.0 482H2258.0Q2212.0 482 2186.0 461.0Q2160.0 440 2160.0 404Q2160.0 346 2213.0 338L2355.0 318Q2495.0 298 2495.0 154Q2495.0 77 2444.5 34.5Q2394.0 -8 2302.0 -8ZM2995.0 0Q2927.0 0 2886.0 39.5Q2845.0 79 2845.0 145V468H2687.0V550H2845.0V705H2935.0V550H3160.0V468H2935.0V145Q2935.0 117 2951.5 99.5Q2968.0 82 2995.0 82H3155.0V0ZM3385.0 0V82H3580.0V468H3405.0V550H3670.0V82H3855.0V0ZM3615.0 649Q3582.0 649 3563.0 666.0Q3544.0 683 3544.0 712Q3544.0 742 3563.0 759.5Q3582.0 777 3615.0 777Q3648.0 777 3667.0 759.5Q3686.0 742 3686.0 712Q3686.0 683 3667.0 666.0Q3648.0 649 3615.0 649ZM4340.0 0Q4267.0 0 4223.5 42.5Q4180.0 85 4180.0 155V648H3990.0V730H4270.0V155Q4270.0 121 4289.0 101.5Q4308.0 82 4340.0 82H4510.0V0ZM5000.0 0Q4927.0 0 4883.5 42.5Q4840.0 85 4840.0 155V648H4650.0V730H4930.0V155Q4930.0 121 4949.0 101.5Q4968.0 82 5000.0 82H5170.0V0ZM6240.0 260Q6203.0 260 6180.5 282.0Q6158.0 304 6158.0 339Q6158.0 376 6180.5 399.0Q6203.0 422 6240.0 422Q6277.0 422 6299.5 399.0Q6322.0 376 6322.0 339Q6322.0 304 6299.5 282.0Q6277.0 260 6240.0 260ZM7335.0 -110 7690.0 830H7785.0L7430.0 -110ZM8300.0 0Q8227.0 0 8183.5 42.5Q8140.0 85 8140.0 155V648H7950.0V730H8230.0V155Q8230.0 121 8249.0 101.5Q8268.0 82 8300.0 82H8470.0V0ZM8880.0 -10Q8783.0 -10 8723.5 48.5Q8664.0 107 8664.0 210V340Q8664.0 443 8723.5 501.5Q8783.0 560 8880.0 560Q8945.0 560 8993.5 534.0Q9042.0 508 9069.0 461.0Q9096.0 414 9096.0 350V252H8752.0V200Q8752.0 139 8787.0 103.5Q8822.0 68 8880.0 68Q8930.0 68 8962.5 87.5Q8995.0 107 9002.0 140H9092.0Q9083.0 71 9025.0 30.5Q8967.0 -10 8880.0 -10ZM8752.0 322H9008.0V350Q9008.0 415 8974.5 450.5Q8941.0 486 8880.0 486Q8819.0 486 8785.5 450.5Q8752.0 415 8752.0 350ZM9492.0 -10Q9407.0 -10 9357.0 37.5Q9307.0 85 9307.0 162Q9307.0 213 9330.0 251.0Q9353.0 289 9394.0 310.5Q9435.0 332 9488.0 332H9658.0V375Q9658.0 482 9541.0 482Q9489.0 482 9457.0 463.0Q9425.0 444 9423.0 410H9333.0Q9338.0 475 9393.5 517.5Q9449.0 560 9541.0 560Q9641.0 560 9694.5 512.0Q9748.0 464 9748.0 378V0H9659.0V100H9657.0Q9649.0 49 9606.0 19.5Q9563.0 -10 9492.0 -10ZM9514.0 66Q9580.0 66 9619.0 98.0Q9658.0 130 9658.0 185V262H9498.0Q9454.0 262 9426.5 235.5Q9399.0 209 9399.0 165Q9399.0 119 9429.5 92.5Q9460.0 66 9514.0 66ZM10012.0 0V550H10102.0V445H10104.0Q10111.0 498 10149.0 529.0Q10187.0 560 10251.0 560Q10337.0 560 10383.5 508.5Q10430.0 457 10430.0 362V315H10340.0V362Q10340.0 482 10223.0 482Q10164.0 482 10133.0 448.0Q10102.0 414 10102.0 350V0ZM10652.0 0V550H10742.0V445H10743.0Q10750.0 500 10788.0 530.0Q10826.0 560 10889.0 560Q10972.0 560 11021.0 509.0Q11070.0 458 11070.0 370V0H10980.0V354Q10980.0 417 10948.5 450.5Q10917.0 484 10863.0 484Q10807.0 484 10774.5 449.0Q10742.0 414 10742.0 350V0Z" fill="#0a0a1299"/>
  <!-- WRAPUP -->
  <rect x="16.0" y="171.0" width="158" height="66" fill="#fafafe" stroke="#08081014" stroke-width="1"/>
  <rect x="15.5" y="170.5" width="2" height="67" fill="#5f7d00"/>
    <path transform="translate(117.25 188.14) scale(0.00829 -0.00829)" d="M304.0 -10Q198.0 -10 135.0 46.0Q72.0 102 72.0 200H162.0Q162.0 139 201.0 104.5Q240.0 70 304.0 70Q366.0 70 403.0 106.0Q440.0 142 440.0 200Q440.0 244 416.5 276.5Q393.0 309 349.0 321L238.0 352Q169.0 372 129.5 423.5Q90.0 475 90.0 545Q90.0 603 116.0 647.0Q142.0 691 189.0 715.5Q236.0 740 297.0 740Q359.0 740 406.5 715.5Q454.0 691 481.0 647.5Q508.0 604 508.0 547H418.0Q418.0 597 384.0 628.5Q350.0 660 297.0 660Q244.0 660 211.0 628.5Q178.0 597 178.0 547Q178.0 507 199.5 478.5Q221.0 450 260.0 439L374.0 407Q447.0 387 487.5 331.5Q528.0 276 528.0 200Q528.0 104 467.0 47.0Q406.0 -10 304.0 -10ZM1115.0 0V648H915.0V730H1405.0V648H1205.0V0ZM1820.0 0V730H2240.0V648H1909.0V422H2205.0V342H1909.0V82H2240.0V0ZM2672.0 0V730H2907.0Q3009.0 730 3069.5 671.5Q3130.0 613 3130.0 515Q3130.0 417 3069.5 358.5Q3009.0 300 2907.0 300H2762.0V0ZM2762.0 381H2907.0Q2966.0 381 3001.5 417.5Q3037.0 454 3037.0 515Q3037.0 577 3001.5 613.0Q2966.0 649 2907.0 649H2762.0ZM3500.0 -100V-25H3980.0V-100ZM4600.0 -10Q4499.0 -10 4439.5 48.5Q4380.0 107 4380.0 205V525Q4380.0 623 4439.5 681.5Q4499.0 740 4600.0 740Q4701.0 740 4760.5 681.5Q4820.0 623 4820.0 525V205Q4820.0 140 4793.0 91.5Q4766.0 43 4716.5 16.5Q4667.0 -10 4600.0 -10ZM4600.0 67Q4660.0 67 4696.5 105.5Q4733.0 144 4733.0 205V525Q4733.0 586 4696.5 624.5Q4660.0 663 4600.0 663Q4540.0 663 4503.5 624.5Q4467.0 586 4467.0 525V205Q4467.0 144 4503.5 105.5Q4540.0 67 4600.0 67ZM4600.0 310Q4573.0 310 4556.5 325.0Q4540.0 340 4540.0 368Q4540.0 395 4556.5 409.5Q4573.0 424 4600.0 424Q4627.0 424 4643.5 409.5Q4660.0 395 4660.0 368Q4660.0 340 4643.5 325.0Q4627.0 310 4600.0 310ZM5560.0 0V160H5230.0V301L5496.0 730H5598.0L5320.0 281V242H5560.0V420H5650.0V0Z" fill="#0a0a1299"/>
  <svg x="32.0" y="193.0" width="18" height="18"><use href="#i-recap" class="ico" stroke="#5f7d00"/></svg>
    <path transform="translate(59.29 208.00) scale(0.02143 -0.02143)" d="M105.0 700H239.0L237.0 206H241.0L467.0 700H569.0L618.0 206H622.0L794.0 700H934.0L666.0 0H539.0L486.0 492H482.0L254.0 0H127.0ZM1512.0 372 1436.0 307 1491.0 232 1450.0 0H1314.0L1350.0 207L1306.0 268H1084.0L1037.0 0H901.0L1024.0 700H1454.0L1549.0 584ZM1104.0 380H1344.0L1385.0 415L1409.0 551L1380.0 586H1140.0ZM1894.0 700H2018.0L2151.0 0H2013.0L1985.0 155H1739.0L1653.0 0H1515.0ZM1972.0 267 1927.0 533H1925.0L1787.0 267ZM2345.0 700H2775.0L2870.0 584L2826.0 336L2711.0 238H2400.0L2358.0 0H2222.0ZM2660.0 352 2701.0 387 2730.0 551 2701.0 586H2461.0L2420.0 352ZM2890.0 128 2991.0 700H3127.0L3033.0 167L3075.0 116H3270.0L3330.0 167L3424.0 700H3560.0L3456.0 110L3327.0 0H2996.0ZM3691.0 700H4121.0L4216.0 584L4172.0 336L4057.0 238H3746.0L3704.0 0H3568.0ZM4006.0 352 4047.0 387 4076.0 551 4047.0 586H3807.0L3766.0 352Z" fill="#0a0a12"/>
    <path transform="translate(59.38 224.99) scale(0.00842 -0.00842)" d="M75.0 -110 430.0 830H525.0L170.0 -110ZM781.0 0 691.0 550H769.0L825.0 162Q828.0 140 831.0 113.5Q834.0 87 835.0 70Q837.0 87 839.5 113.5Q842.0 140 846.0 162L915.0 550H1005.0L1074.0 162Q1078.0 140 1081.5 113.5Q1085.0 87 1086.0 70Q1088.0 87 1091.0 113.5Q1094.0 140 1097.0 162L1155.0 550H1229.0L1135.0 0H1036.0L973.0 380Q969.0 408 965.5 439.5Q962.0 471 960.0 488Q959.0 471 955.0 439.5Q951.0 408 946.0 380L880.0 0ZM1432.0 0V550H1522.0V445H1524.0Q1531.0 498 1569.0 529.0Q1607.0 560 1671.0 560Q1757.0 560 1803.5 508.5Q1850.0 457 1850.0 362V315H1760.0V362Q1760.0 482 1643.0 482Q1584.0 482 1553.0 448.0Q1522.0 414 1522.0 350V0ZM2232.0 -10Q2147.0 -10 2097.0 37.5Q2047.0 85 2047.0 162Q2047.0 213 2070.0 251.0Q2093.0 289 2134.0 310.5Q2175.0 332 2228.0 332H2398.0V375Q2398.0 482 2281.0 482Q2229.0 482 2197.0 463.0Q2165.0 444 2163.0 410H2073.0Q2078.0 475 2133.5 517.5Q2189.0 560 2281.0 560Q2381.0 560 2434.5 512.0Q2488.0 464 2488.0 378V0H2399.0V100H2397.0Q2389.0 49 2346.0 19.5Q2303.0 -10 2232.0 -10ZM2254.0 66Q2320.0 66 2359.0 98.0Q2398.0 130 2398.0 185V262H2238.0Q2194.0 262 2166.5 235.5Q2139.0 209 2139.0 165Q2139.0 119 2169.5 92.5Q2200.0 66 2254.0 66ZM2732.0 -180V550H2822.0V445H2823.0Q2830.0 499 2870.0 529.5Q2910.0 560 2972.0 560Q3055.0 560 3104.0 505.5Q3153.0 451 3153.0 356V195Q3153.0 100 3104.0 45.0Q3055.0 -10 2972.0 -10Q2910.0 -10 2870.0 21.0Q2830.0 52 2823.0 105H2820.0L2822.0 -20V-180ZM2942.0 68Q2999.0 68 3031.0 98.0Q3063.0 128 3063.0 195V355Q3063.0 423 3031.0 452.5Q2999.0 482 2942.0 482Q2887.0 482 2854.5 447.0Q2822.0 412 2822.0 350V200Q2822.0 138 2854.5 103.0Q2887.0 68 2942.0 68ZM3599.0 -10Q3504.0 -10 3447.0 46.5Q3390.0 103 3390.0 200V550H3480.0V200Q3480.0 140 3512.0 104.5Q3544.0 69 3599.0 69Q3655.0 69 3687.5 104.5Q3720.0 140 3720.0 200V550H3810.0V200Q3810.0 103 3752.0 46.5Q3694.0 -10 3599.0 -10ZM4052.0 -180V550H4142.0V445H4143.0Q4150.0 499 4190.0 529.5Q4230.0 560 4292.0 560Q4375.0 560 4424.0 505.5Q4473.0 451 4473.0 356V195Q4473.0 100 4424.0 45.0Q4375.0 -10 4292.0 -10Q4230.0 -10 4190.0 21.0Q4150.0 52 4143.0 105H4140.0L4142.0 -20V-180ZM4262.0 68Q4319.0 68 4351.0 98.0Q4383.0 128 4383.0 195V355Q4383.0 423 4351.0 452.5Q4319.0 482 4262.0 482Q4207.0 482 4174.5 447.0Q4142.0 412 4142.0 350V200Q4142.0 138 4174.5 103.0Q4207.0 68 4262.0 68ZM5580.0 260Q5543.0 260 5520.5 282.0Q5498.0 304 5498.0 339Q5498.0 376 5520.5 399.0Q5543.0 422 5580.0 422Q5617.0 422 5639.5 399.0Q5662.0 376 5662.0 339Q5662.0 304 5639.5 282.0Q5617.0 260 5580.0 260ZM6675.0 -110 7030.0 830H7125.0L6770.0 -110ZM7372.0 0V550H7462.0V445H7464.0Q7471.0 498 7509.0 529.0Q7547.0 560 7611.0 560Q7697.0 560 7743.5 508.5Q7790.0 457 7790.0 362V315H7700.0V362Q7700.0 482 7583.0 482Q7524.0 482 7493.0 448.0Q7462.0 414 7462.0 350V0ZM8220.0 -10Q8123.0 -10 8063.5 48.5Q8004.0 107 8004.0 210V340Q8004.0 443 8063.5 501.5Q8123.0 560 8220.0 560Q8285.0 560 8333.5 534.0Q8382.0 508 8409.0 461.0Q8436.0 414 8436.0 350V252H8092.0V200Q8092.0 139 8127.0 103.5Q8162.0 68 8220.0 68Q8270.0 68 8302.5 87.5Q8335.0 107 8342.0 140H8432.0Q8423.0 71 8365.0 30.5Q8307.0 -10 8220.0 -10ZM8092.0 322H8348.0V350Q8348.0 415 8314.5 450.5Q8281.0 486 8220.0 486Q8159.0 486 8125.5 450.5Q8092.0 415 8092.0 350ZM8888.0 -10Q8788.0 -10 8728.0 46.0Q8668.0 102 8668.0 200V350Q8668.0 448 8728.0 504.0Q8788.0 560 8888.0 560Q8983.0 560 9041.5 509.0Q9100.0 458 9103.0 370H9013.0Q9010.0 423 8977.0 451.5Q8944.0 480 8888.0 480Q8829.0 480 8793.5 446.5Q8758.0 413 8758.0 351V200Q8758.0 138 8793.5 104.0Q8829.0 70 8888.0 70Q8944.0 70 8977.0 99.0Q9010.0 128 9013.0 180H9103.0Q9100.0 92 9041.5 41.0Q8983.0 -10 8888.0 -10ZM9492.0 -10Q9407.0 -10 9357.0 37.5Q9307.0 85 9307.0 162Q9307.0 213 9330.0 251.0Q9353.0 289 9394.0 310.5Q9435.0 332 9488.0 332H9658.0V375Q9658.0 482 9541.0 482Q9489.0 482 9457.0 463.0Q9425.0 444 9423.0 410H9333.0Q9338.0 475 9393.5 517.5Q9449.0 560 9541.0 560Q9641.0 560 9694.5 512.0Q9748.0 464 9748.0 378V0H9659.0V100H9657.0Q9649.0 49 9606.0 19.5Q9563.0 -10 9492.0 -10ZM9514.0 66Q9580.0 66 9619.0 98.0Q9658.0 130 9658.0 185V262H9498.0Q9454.0 262 9426.5 235.5Q9399.0 209 9399.0 165Q9399.0 119 9429.5 92.5Q9460.0 66 9514.0 66ZM9992.0 -180V550H10082.0V445H10083.0Q10090.0 499 10130.0 529.5Q10170.0 560 10232.0 560Q10315.0 560 10364.0 505.5Q10413.0 451 10413.0 356V195Q10413.0 100 10364.0 45.0Q10315.0 -10 10232.0 -10Q10170.0 -10 10130.0 21.0Q10090.0 52 10083.0 105H10080.0L10082.0 -20V-180ZM10202.0 68Q10259.0 68 10291.0 98.0Q10323.0 128 10323.0 195V355Q10323.0 423 10291.0 452.5Q10259.0 482 10202.0 482Q10147.0 482 10114.5 447.0Q10082.0 412 10082.0 350V200Q10082.0 138 10114.5 103.0Q10147.0 68 10202.0 68Z" fill="#0a0a1299"/>
</svg>
