<svg xmlns="http://www.w3.org/2000/svg" viewBox="0 0 450 372" width="450" height="372" role="img" aria-labelledby="ttl desc">
  <title id="ttl">The path to co-evolution — three-step loop</title>
  <desc id="desc">Three panels on a circle: 01 CAPTURE (/braindump) at twelve o'clock, 02 EVOLVE (/distill, /learn) at four o'clock, 03 WRAPUP (/wrapup, /recap) at eight o'clock. Dashed arrows travel clockwise along the circle between them — the recurring co-evolution loop.</desc>
  <defs>
    <marker id="arrow" viewBox="0 0 3 2" refX="0" refY="1" markerWidth="3" markerHeight="2" orient="auto">
      <path d="M0 0 L3 1 L0 2 Z" fill="#5f7d00"/>
    </marker>
    <symbol id="i-capture" viewBox="0 0 24 24"><path d="M12 20h9"/><path d="M16.5 3.5a2.12 2.12 0 0 1 3 3L7 19l-4 1 1-4Z"/></symbol>
    <symbol id="i-learn" viewBox="0 0 24 24"><path d="M9 18h6"/><path d="M10 22h4"/><path d="M15.09 14c.18-.98.65-1.74 1.41-2.5A4.65 4.65 0 0 0 18 8 6 6 0 0 0 6 8c0 1 .23 2.23 1.5 3.5A4.6 4.6 0 0 1 8.91 14"/></symbol>
    <symbol id="i-recap" viewBox="0 0 24 24"><polyline points="1 4 1 10 7 10"/><path d="M3.51 15a9 9 0 1 0 2.13-9.36L1 10"/></symbol>
    <path id="gc41" d="M340 -700H464L597 0H459L431 -155H185L99 0H-39ZM418 -267 373 -533H371L233 -267Z"/>
    <path id="gc43" d="M33 -124 116 -593 241 -700H582L683 -579L665 -480H529L539 -537L501 -584H301L241 -533L176 -167L218 -116H418L473 -163L484 -220H620L599 -105L476 0H135Z"/>
    <path id="gc45" d="M145 -700H650L630 -585H261L230 -408H570L550 -295H210L178 -115H547L527 0H22Z"/>
    <path id="gc4c" d="M145 -700H281L178 -115H527L507 0H22Z"/>
    <path id="gc4f" d="M33 -124 116 -593 241 -700H601L703 -577L619 -103L497 0H135ZM434 -116 494 -167 559 -533 517 -584H302L242 -533L176 -167L218 -116Z"/>
    <path id="gc50" d="M145 -700H575L670 -584L626 -336L511 -238H200L158 0H22ZM460 -352 501 -387 530 -551 501 -586H261L220 -352Z"/>
    <path id="gc52" d="M633 -372 557 -307 612 -232 571 0H435L471 -207L427 -268H205L158 0H22L145 -700H575L670 -584ZM225 -380H465L506 -415L530 -551L501 -586H261Z"/>
    <path id="gc54" d="M284 -585H75L95 -700H649L628 -585H420L317 0H181Z"/>
    <path id="gc55" d="M44 -128 145 -700H281L187 -167L229 -116H424L484 -167L578 -700H714L610 -110L481 0H150Z"/>
    <path id="gc56" d="M90 -700H224L303 -162H305L574 -700H720L348 0H216Z"/>
    <path id="gc57" d="M105 -700H239L237 -206H241L467 -700H569L618 -206H622L794 -700H934L666 0H539L486 -492H482L254 0H127Z"/>
    <path id="gm2f" d="M74 110 428 -830H526L172 110Z"/>
    <path id="gm30" d="M300 10Q233 10 183 -17Q133 -43 106 -92Q79 -140 79 -205V-525Q79 -591 106 -639Q133 -687 183 -713Q233 -740 300 -740Q368 -740 418 -713Q467 -687 494 -639Q521 -591 521 -525V-205Q521 -140 494 -92Q467 -43 417 -17Q367 10 300 10ZM300 -70Q359 -70 395 -108Q431 -145 431 -205V-525Q431 -585 395 -622Q359 -660 300 -660Q241 -660 205 -622Q169 -585 169 -525V-205Q169 -145 205 -108Q241 -70 300 -70ZM300 -305Q273 -305 256 -323Q239 -340 239 -368Q239 -395 256 -412Q273 -429 300 -429Q327 -429 344 -412Q361 -395 361 -368Q361 -340 344 -323Q327 -305 300 -305Z"/>
    <path id="gm31" d="M89 0V-85H287V-651L89 -504V-607L255 -730H380V-85H541V0Z"/>
    <path id="gm32" d="M91 0V-95L314 -331Q370 -391 396 -438Q422 -484 422 -528Q422 -588 389 -622Q356 -657 299 -657Q236 -657 200 -621Q164 -586 164 -524H71Q73 -590 101 -639Q130 -688 181 -714Q231 -740 299 -740Q365 -740 414 -714Q463 -689 489 -642Q515 -595 515 -530Q515 -467 482 -406Q449 -345 374 -267L197 -85H527V0Z"/>
    <path id="gm33" d="M289 10Q223 10 173 -16Q123 -43 96 -90Q69 -137 69 -200H163Q163 -140 196 -106Q230 -73 290 -73Q351 -73 385 -108Q418 -143 418 -200V-252Q418 -313 385 -347Q351 -380 290 -380H215V-472L394 -645H99V-730H488V-638L292 -449V-463Q393 -463 452 -406Q512 -349 512 -253V-200Q512 -137 484 -90Q457 -43 406 -16Q356 10 289 10Z"/>
    <path id="gm45" d="M99 0V-730H521V-645H191V-423H486V-339H191V-85H521V0Z"/>
    <path id="gm50" d="M90 0V-730H326Q395 -730 445 -703Q496 -677 523 -628Q551 -580 551 -514Q551 -449 523 -400Q496 -351 445 -325Q395 -298 326 -298H184V0ZM184 -382H326Q385 -382 420 -418Q455 -454 455 -514Q455 -575 420 -610Q385 -646 326 -646H184Z"/>
    <path id="gm53" d="M304 10Q231 10 180 -14Q128 -38 100 -83Q71 -128 71 -191H164Q164 -137 201 -105Q238 -74 304 -74Q366 -74 401 -104Q436 -135 436 -189Q436 -232 413 -264Q389 -297 346 -309L248 -340Q172 -363 131 -417Q90 -471 90 -545Q90 -604 117 -648Q143 -692 192 -716Q240 -741 306 -741Q402 -741 461 -687Q519 -634 520 -544H427Q427 -597 395 -627Q363 -657 304 -657Q247 -657 215 -630Q183 -602 183 -553Q183 -509 207 -476Q231 -444 275 -430L374 -399Q448 -376 489 -321Q529 -266 529 -191Q529 -131 501 -85Q473 -40 422 -15Q371 10 304 10Z"/>
    <path id="gm54" d="M253 0V-645H54V-731H546V-645H347V0Z"/>
    <path id="gm5f" d="M60 104V25H540V104Z"/>
    <path id="gm61" d="M251 10Q164 10 114 -35Q64 -79 64 -155Q64 -232 114 -277Q165 -321 251 -321H418V-375Q418 -425 388 -452Q358 -479 303 -479Q255 -479 222 -458Q190 -438 185 -404H92Q101 -475 159 -518Q217 -560 305 -560Q401 -560 456 -511Q512 -462 512 -378V0H420V-104H405L420 -120Q420 -60 374 -25Q327 10 251 10ZM275 -63Q337 -63 378 -95Q418 -126 418 -176V-252H253Q209 -252 183 -228Q158 -203 158 -161Q158 -116 189 -89Q220 -63 275 -63Z"/>
    <path id="gm62" d="M333 10Q265 10 225 -27Q184 -63 184 -127L203 -105H184V0H90V-730H184V-571L182 -445H203L184 -423Q184 -486 225 -523Q266 -560 333 -560Q416 -560 466 -505Q516 -450 516 -354V-195Q516 -100 466 -45Q416 10 333 10ZM302 -71Q358 -71 391 -104Q423 -138 423 -201V-349Q423 -412 391 -446Q358 -479 302 -479Q248 -479 216 -445Q184 -410 184 -349V-201Q184 -140 216 -105Q248 -71 302 -71Z"/>
    <path id="gm63" d="M304 10Q238 10 188 -15Q138 -40 111 -88Q84 -136 84 -201V-349Q84 -415 111 -463Q138 -510 188 -535Q238 -560 304 -560Q400 -560 458 -509Q517 -458 520 -369H426Q423 -421 391 -449Q359 -477 304 -477Q246 -477 211 -444Q177 -411 177 -350V-201Q177 -140 211 -106Q246 -73 304 -73Q359 -73 391 -101Q423 -130 426 -181H520Q517 -92 458 -41Q400 10 304 10Z"/>
    <path id="gm64" d="M267 10Q184 10 134 -45Q84 -100 84 -195V-354Q84 -450 134 -505Q184 -560 267 -560Q335 -560 375 -523Q416 -486 416 -423L397 -445H418L416 -571V-730H510V0H416V-105H397L416 -127Q416 -63 375 -27Q335 10 267 10ZM298 -71Q353 -71 385 -105Q416 -140 416 -201V-349Q416 -410 385 -445Q353 -479 298 -479Q242 -479 209 -446Q177 -412 177 -349V-201Q177 -138 209 -104Q242 -71 298 -71Z"/>
    <path id="gm65" d="M300 10Q235 10 186 -16Q137 -42 110 -90Q84 -137 84 -201V-349Q84 -414 110 -461Q137 -508 186 -534Q235 -560 300 -560Q366 -560 414 -534Q463 -508 490 -461Q516 -414 516 -349V-252H175V-201Q175 -136 207 -102Q240 -68 300 -68Q351 -68 383 -86Q414 -105 421 -141H514Q505 -71 446 -31Q387 10 300 10ZM425 -313V-350Q425 -414 393 -448Q361 -483 300 -483Q240 -483 207 -448Q175 -414 175 -349V-321L432 -321Z"/>
    <path id="gm69" d="M84 0V-85H279V-465H109V-550H372V-85H555V0ZM315 -648Q282 -648 262 -666Q243 -683 243 -712Q243 -743 262 -760Q282 -778 315 -778Q349 -778 368 -760Q387 -743 387 -712Q387 -683 368 -666Q349 -648 315 -648Z"/>
    <path id="gm6c" d="M376 0Q327 0 291 -19Q254 -39 234 -74Q214 -110 214 -157V-645H30V-730H307V-157Q307 -124 326 -104Q345 -85 377 -85H551V0Z"/>
    <path id="gm6d" d="M65 0V-550H146V-483H164L150 -460Q150 -506 175 -533Q199 -560 241 -560Q287 -560 312 -526Q337 -492 337 -430L310 -483H352L333 -460Q333 -506 359 -533Q384 -560 426 -560Q478 -560 507 -521Q535 -482 535 -418V0H450V-418Q450 -452 436 -470Q421 -489 394 -489Q367 -489 352 -471Q337 -453 337 -419V0H263V-418Q263 -453 248 -471Q233 -489 205 -489Q178 -489 164 -471Q150 -453 150 -419V0Z"/>
    <path id="gm6e" d="M90 0V-550H184V-445H204L184 -423Q184 -488 223 -524Q262 -560 331 -560Q414 -560 463 -509Q512 -457 512 -369V0H418V-359Q418 -417 387 -448Q356 -479 303 -479Q248 -479 216 -446Q184 -412 184 -349V0Z"/>
    <path id="gm70" d="M90 180V-550H184V-445H203L184 -423Q184 -487 225 -523Q266 -560 334 -560Q417 -560 467 -505Q516 -451 516 -355V-196Q516 -132 494 -86Q471 -40 431 -15Q390 10 334 10Q267 10 226 -27Q184 -64 184 -127L203 -105H182L184 21V180ZM303 -71Q359 -71 391 -104Q423 -138 423 -201V-349Q423 -412 391 -446Q359 -479 303 -479Q249 -479 216 -445Q184 -410 184 -349V-201Q184 -140 216 -105Q249 -71 303 -71Z"/>
    <path id="gm72" d="M109 0V-550H200V-445H222L193 -380Q193 -469 231 -515Q270 -560 346 -560Q433 -560 485 -505Q536 -451 536 -358V-324H442V-349Q442 -413 411 -447Q380 -481 323 -481Q267 -481 235 -447Q203 -412 203 -349V0Z"/>
    <path id="gm73" d="M283 8Q226 8 184 -10Q142 -27 117 -60Q92 -92 88 -136H181Q187 -108 213 -91Q239 -74 283 -74H325Q377 -74 403 -95Q429 -116 429 -152Q429 -186 405 -206Q382 -226 336 -233L263 -245Q181 -259 141 -295Q101 -332 101 -402Q101 -477 148 -517Q196 -558 290 -558H328Q409 -558 457 -521Q506 -483 516 -420H422Q416 -445 393 -461Q369 -476 328 -476H290Q240 -476 217 -457Q194 -439 194 -401Q194 -368 214 -352Q234 -337 276 -330L350 -318Q440 -304 481 -266Q522 -228 522 -156Q522 -79 473 -35Q424 8 325 8Z"/>
    <path id="gm74" d="M360 0Q288 0 248 -39Q208 -77 208 -147V-465H54V-550H208V-705H302V-550H521V-465H302V-147Q302 -85 361 -85H511V0Z"/>
    <path id="gm75" d="M299 10Q203 10 146 -47Q88 -103 88 -201V-550H182V-201Q182 -140 213 -106Q245 -72 299 -72Q354 -72 386 -106Q418 -140 418 -201V-550H512V-201Q512 -103 453 -47Q395 10 299 10Z"/>
    <path id="gm77" d="M121 0 34 -550H116L170 -165Q173 -143 177 -116Q180 -90 182 -72Q184 -90 189 -116Q193 -143 196 -165L257 -550H344L404 -165Q407 -143 411 -116Q416 -90 418 -72Q420 -90 424 -116Q429 -143 432 -165L488 -550H566L475 0H373L315 -376Q311 -404 306 -432Q301 -461 299 -478Q297 -461 293 -432Q289 -404 284 -376L223 0Z"/>
    <path id="gmb7" d="M300 -260Q262 -260 239 -282Q216 -304 216 -342Q216 -381 239 -404Q262 -428 300 -428Q339 -428 361 -404Q384 -381 384 -342Q384 -304 361 -282Q339 -260 300 -260Z"/>
  </defs>
  <style>
    .ico { fill: none; stroke-width: 1.75; stroke-linecap: round; stroke-linejoin: round; }
    /* MOTION RULE: cards never animate — motion is ONLY this connector dash-flow. */
    .plug { fill: none; stroke: #5f7d00; stroke-width: 1.5; stroke-linecap: round; stroke-dasharray: 5 7; }
    .plug-flow { animation: plug-flow 1200ms linear infinite; }
    @keyframes plug-flow { to { stroke-dashoffset: -24; } }
    @media (prefers-reduced-motion: reduce) {
      .plug-flow { animation: none; }
    }
  </style>
  <path class="plug" d="M310.0 94.5 A145 145 0 0 1 367.0 241.4" opacity="0.22"/>
  <path class="plug plug-flow" d="M310.0 94.5 A145 145 0 0 1 367.0 241.4" style="animation-delay:0ms" marker-end="url(#arrow)"/>
  <path class="plug" d="M317.6 323.6 A145 145 0 0 1 137.4 327.6" opacity="0.22"/>
  <path class="plug plug-flow" d="M317.6 323.6 A145 145 0 0 1 137.4 327.6" style="animation-delay:400ms" marker-end="url(#arrow)"/>
  <path class="plug" d="M83.9 245.5 A145 145 0 0 1 135.9 97.6" opacity="0.22"/>
  <path class="plug plug-flow" d="M83.9 245.5 A145 145 0 0 1 135.9 97.6" style="animation-delay:800ms" marker-end="url(#arrow)"/>
  <rect x="146.0" y="34.0" width="158" height="66" fill="#fafafe" stroke="#08081014" stroke-width="1"/>
  <rect x="145.5" y="33.5" width="2" height="67" fill="#5f7d00"/>
<g transform="translate(244.76 51.14) scale(0.00829)" fill="#0a0a1299"><use href="#gm53" x="0"/><use href="#gm54" x="860"/><use href="#gm45" x="1720"/><use href="#gm50" x="2580"/><use href="#gm5f" x="3440"/><use href="#gm30" x="4300"/><use href="#gm31" x="5160"/></g>
  <svg x="162.0" y="56.0" width="18" height="18"><use href="#i-capture" class="ico" stroke="#5f7d00"/></svg>
<g transform="translate(189.29 71.00) scale(0.02143)" fill="#0a0a12"><use href="#gc43" x="0"/><use href="#gc41" x="675"/><use href="#gc50" x="1341"/><use href="#gc54" x="2007"/><use href="#gc55" x="2611"/><use href="#gc52" x="3331"/><use href="#gc45" x="4026"/></g>
<g transform="translate(189.38 87.99) scale(0.00842)" fill="#0a0a1299"><use href="#gm2f" x="0"/><use href="#gm62" x="660"/><use href="#gm72" x="1320"/><use href="#gm61" x="1980"/><use href="#gm69" x="2640"/><use href="#gm6e" x="3300"/><use href="#gm64" x="3960"/><use href="#gm75" x="4620"/><use href="#gm6d" x="5280"/><use href="#gm70" x="5940"/></g>
  <rect x="271.6" y="251.5" width="158" height="66" fill="#fafafe" stroke="#08081014" stroke-width="1"/>
  <rect x="271.1" y="251.0" width="2" height="67" fill="#5f7d00"/>
<g transform="translate(370.48 268.64) scale(0.00829)" fill="#0a0a1299"><use href="#gm53" x="0"/><use href="#gm54" x="860"/><use href="#gm45" x="1720"/><use href="#gm50" x="2580"/><use href="#gm5f" x="3440"/><use href="#gm30" x="4300"/><use href="#gm32" x="5160"/></g>
  <svg x="287.6" y="273.5" width="18" height="18"><use href="#i-learn" class="ico" stroke="#5f7d00"/></svg>
<g transform="translate(315.13 288.50) scale(0.02143)" fill="#0a0a12"><use href="#gc45" x="0"/><use href="#gc56" x="626"/><use href="#gc4f" x="1296"/><use href="#gc4c" x="2016"/><use href="#gc56" x="2597"/><use href="#gc45" x="3267"/></g>
<g transform="translate(314.94 306.01) scale(0.00904)" fill="#0a0a1299"><use href="#gm2f" x="0"/><use href="#gm64" x="660"/><use href="#gm69" x="1320"/><use href="#gm73" x="1980"/><use href="#gm74" x="2640"/><use href="#gm69" x="3300"/><use href="#gm6c" x="3960"/><use href="#gm6c" x="4620"/><use href="#gmb7" x="5940"/><use href="#gm2f" x="7260"/><use href="#gm6c" x="7920"/><use href="#gm65" x="8580"/><use href="#gm61" x="9240"/><use href="#gm72" x="9900"/><use href="#gm6e" x="10560"/></g>
  <rect x="20.4" y="251.5" width="158" height="66" fill="#fafafe" stroke="#08081014" stroke-width="1"/>
  <rect x="19.9" y="251.0" width="2" height="67" fill="#5f7d00"/>
<g transform="translate(119.41 268.64) scale(0.00829)" fill="#0a0a1299"><use href="#gm53" x="0"/><use href="#gm54" x="860"/><use href="#gm45" x="1720"/><use href="#gm50" x="2580"/><use href="#gm5f" x="3440"/><use href="#gm30" x="4300"/><use href="#gm33" x="5160"/></g>
  <svg x="36.4" y="273.5" width="18" height="18"><use href="#i-recap" class="ico" stroke="#5f7d00"/></svg>
<g transform="translate(62.15 288.50) scale(0.02143)" fill="#0a0a12"><use href="#gc57" x="0"/><use href="#gc52" x="899"/><use href="#gc41" x="1594"/><use href="#gc50" x="2260"/><use href="#gc55" x="2926"/><use href="#gc50" x="3646"/></g>
<g transform="translate(63.78 305.49) scale(0.00842)" fill="#0a0a1299"><use href="#gm2f" x="0"/><use href="#gm77" x="660"/><use href="#gm72" x="1320"/><use href="#gm61" x="1980"/><use href="#gm70" x="2640"/><use href="#gm75" x="3300"/><use href="#gm70" x="3960"/><use href="#gmb7" x="5280"/><use href="#gm2f" x="6600"/><use href="#gm72" x="7260"/><use href="#gm65" x="7920"/><use href="#gm63" x="8580"/><use href="#gm61" x="9240"/><use href="#gm70" x="9900"/></g>
</svg>
