<svg xmlns="http://www.w3.org/2000/svg" viewBox="0 0 780 750" width="780" height="750" role="img" aria-labelledby="ttl desc">
  <title id="ttl">Memory tiers — four-stage persistence</title>
  <desc id="desc">Four memory tiers stacked top to bottom: Tier 1 working memory (00-inbox, current session), Tier 2 episodic memory (07-logs), Tier 3 semantic memory (05-agent — MEMORY.md and memory/), Tier 4 distilled knowledge (03-knowledge). Dashed arrows sink downward as knowledge gets validated.</desc>
  <defs>
    <marker id="arrow" viewBox="0 0 3 2" refX="0" refY="1" markerWidth="3" markerHeight="2" orient="auto">
      <path d="M0 0 L3 1 L0 2 Z" fill="#6d28d9"/>
    </marker>
    <symbol id="i-consolidate" viewBox="0 0 24 24"><polyline points="22 12 16 12 14 15 10 15 8 12 2 12"/><path d="M5.45 5.11 2 12v6a2 2 0 0 0 2 2h16a2 2 0 0 0 2-2v-6l-3.45-6.89A2 2 0 0 0 16.76 4H7.24a2 2 0 0 0-1.79 1.11z"/></symbol>
    <symbol id="i-clock" viewBox="0 0 24 24"><circle cx="12" cy="12" r="10"/><polyline points="12 6 12 12 16 14"/></symbol>
    <symbol id="i-memory" viewBox="0 0 24 24"><path d="M19 21H5a2 2 0 0 1-2-2V5a2 2 0 0 1 2-2h11l5 5v11a2 2 0 0 1-2 2z"/><polyline points="17 21 17 13 7 13 7 21"/><polyline points="7 3 7 8 15 8"/></symbol>
    <symbol id="i-skill" viewBox="0 0 24 24"><path d="m12 3-1.9 5.8a2 2 0 0 1-1.3 1.3L3 12l5.8 1.9a2 2 0 0 1 1.3 1.3L12 21l1.9-5.8a2 2 0 0 1 1.3-1.3L21 12l-5.8-1.9a2 2 0 0 1-1.3-1.3Z"/></symbol>
    <symbol id="i-archive" viewBox="0 0 24 24"><rect width="20" height="5" x="2" y="3" rx="1"/><path d="M4 8v11a2 2 0 0 0 2 2h12a2 2 0 0 0 2-2V8"/><line x1="10" y1="12" x2="14" y2="12"/></symbol>
    <path id="gc41" d="M340 -700H464L597 0H459L431 -155H185L99 0H-39ZM418 -267 373 -533H371L233 -267Z"/>
    <path id="gc43" d="M33 -124 116 -593 241 -700H582L683 -579L665 -480H529L539 -537L501 -584H301L241 -533L176 -167L218 -116H418L473 -163L484 -220H620L599 -105L476 0H135Z"/>
    <path id="gc44" d="M145 -700H584L690 -572L607 -103L485 0H22ZM422 -116 482 -167 547 -533 505 -584H261L178 -116Z"/>
    <path id="gc45" d="M145 -700H650L630 -585H261L230 -408H570L550 -295H210L178 -115H547L527 0H22Z"/>
    <path id="gc47" d="M33 -124 117 -593 242 -700H588L689 -579L671 -480H535L545 -537L507 -584H302L242 -533L176 -167L218 -116H427L484 -164L503 -274H354L374 -390H655L605 -103L482 0H135Z"/>
    <path id="gc49" d="M150 -700H286L162 0H26Z"/>
    <path id="gc4b" d="M145 -700H281L230 -407H327L547 -700H708L442 -351L602 0H457L324 -291H209L158 0H22Z"/>
    <path id="gc4c" d="M145 -700H281L178 -115H527L507 0H22Z"/>
    <path id="gc4d" d="M145 -700H263L392 -248H394L681 -700H815L692 0H561L636 -426H634L416 -98H332L230 -426H228L153 0H22Z"/>
    <path id="gc4e" d="M145 -700H267L496 -225H498L581 -700H712L588 0H466L239 -474H237L153 0H22Z"/>
    <path id="gc4f" d="M33 -124 116 -593 241 -700H601L703 -577L619 -103L497 0H135ZM434 -116 494 -167 559 -533 517 -584H302L242 -533L176 -167L218 -116Z"/>
    <path id="gc50" d="M145 -700H575L670 -584L626 -336L511 -238H200L158 0H22ZM460 -352 501 -387 530 -551 501 -586H261L220 -352Z"/>
    <path id="gc52" d="M633 -372 557 -307 612 -232 571 0H435L471 -207L427 -268H205L158 0H22L145 -700H575L670 -584ZM225 -380H465L506 -415L530 -551L501 -586H261Z"/>
    <path id="gc53" d="M27 -116 44 -208H178L167 -149L194 -116H400L440 -150L461 -266L434 -299H177L81 -415L113 -600L231 -700H546L643 -584L627 -491H493L503 -551L476 -584H278L239 -551L221 -448L248 -415H505L601 -299L565 -100L448 0H123Z"/>
    <path id="gc54" d="M284 -585H75L95 -700H649L628 -585H420L317 0H181Z"/>
    <path id="gc57" d="M105 -700H239L237 -206H241L467 -700H569L618 -206H622L794 -700H934L666 0H539L486 -492H482L254 0H127Z"/>
    <path id="gm2b" d="M254 -95V-288H64V-372H254V-565H346V-372H536V-288H346V-95Z"/>
    <path id="gm2c" d="M164 160 244 -151H376L246 160Z"/>
    <path id="gm2d" d="M140 -288V-372H460V-288Z"/>
    <path id="gm2e" d="M300 10Q262 10 239 -12Q216 -35 216 -72Q216 -112 239 -135Q262 -158 300 -158Q339 -158 361 -135Q384 -112 384 -72Q384 -35 361 -12Q339 10 300 10Z"/>
    <path id="gm2f" d="M74 110 428 -830H526L172 110Z"/>
    <path id="gm30" d="M300 10Q233 10 183 -17Q133 -43 106 -92Q79 -140 79 -205V-525Q79 -591 106 -639Q133 -687 183 -713Q233 -740 300 -740Q368 -740 418 -713Q467 -687 494 -639Q521 -591 521 -525V-205Q521 -140 494 -92Q467 -43 417 -17Q367 10 300 10ZM300 -70Q359 -70 395 -108Q431 -145 431 -205V-525Q431 -585 395 -622Q359 -660 300 -660Q241 -660 205 -622Q169 -585 169 -525V-205Q169 -145 205 -108Q241 -70 300 -70ZM300 -305Q273 -305 256 -323Q239 -340 239 -368Q239 -395 256 -412Q273 -429 300 -429Q327 -429 344 -412Q361 -395 361 -368Q361 -340 344 -323Q327 -305 300 -305Z"/>
    <path id="gm31" d="M89 0V-85H287V-651L89 -504V-607L255 -730H380V-85H541V0Z"/>
    <path id="gm32" d="M91 0V-95L314 -331Q370 -391 396 -438Q422 -484 422 -528Q422 -588 389 -622Q356 -657 299 -657Q236 -657 200 -621Q164 -586 164 -524H71Q73 -590 101 -639Q130 -688 181 -714Q231 -740 299 -740Q365 -740 414 -714Q463 -689 489 -642Q515 -595 515 -530Q515 -467 482 -406Q449 -345 374 -267L197 -85H527V0Z"/>
    <path id="gm33" d="M289 10Q223 10 173 -16Q123 -43 96 -90Q69 -137 69 -200H163Q163 -140 196 -106Q230 -73 290 -73Q351 -73 385 -108Q418 -143 418 -200V-252Q418 -313 385 -347Q351 -380 290 -380H215V-472L394 -645H99V-730H488V-638L292 -449V-463Q393 -463 452 -406Q512 -349 512 -253V-200Q512 -137 484 -90Q457 -43 406 -16Q356 10 289 10Z"/>
    <path id="gm34" d="M408 0V-158H79V-304L367 -730H469L171 -283V-243H408V-420H501V0Z"/>
    <path id="gm35" d="M298 10Q208 10 150 -36Q93 -83 84 -162H177Q182 -119 213 -96Q245 -73 299 -73Q361 -73 392 -106Q423 -140 423 -200V-271Q423 -332 392 -365Q361 -399 300 -399Q262 -399 233 -379Q205 -359 192 -326H99L104 -730H490V-645H194L191 -405H219L191 -379Q191 -426 228 -453Q266 -480 328 -480Q417 -481 467 -426Q516 -370 516 -271V-200Q516 -103 459 -47Q402 10 298 10Z"/>
    <path id="gm37" d="M182 0 443 -645H171V-537H78V-730H536V-639L283 0Z"/>
    <path id="gm41" d="M49 0 238 -730H363L551 0H457L410 -192H191L144 0ZM210 -271H390L335 -493Q320 -555 311 -598Q302 -641 300 -654Q298 -641 289 -598Q280 -555 265 -494Z"/>
    <path id="gm43" d="M304 10Q238 10 189 -15Q140 -40 113 -88Q86 -136 86 -201V-529Q86 -595 113 -643Q140 -690 189 -715Q238 -740 304 -740Q370 -740 419 -714Q467 -689 494 -642Q520 -595 520 -529H426Q426 -590 394 -623Q362 -656 304 -656Q246 -656 213 -624Q180 -591 180 -530V-201Q180 -140 213 -107Q246 -74 304 -74Q362 -74 394 -107Q426 -140 426 -201H520Q520 -136 494 -89Q467 -41 419 -16Q370 10 304 10Z"/>
    <path id="gm44" d="M90 0V-730H282Q353 -730 405 -703Q457 -676 486 -627Q514 -577 514 -510V-221Q514 -154 486 -104Q457 -54 405 -27Q353 0 282 0ZM184 -84H282Q347 -84 384 -120Q421 -156 421 -221V-510Q421 -574 384 -610Q347 -646 282 -646H184Z"/>
    <path id="gm45" d="M99 0V-730H521V-645H191V-423H486V-339H191V-85H521V0Z"/>
    <path id="gm46" d="M94 0V-731H526V-645H185V-407H500V-322H187V0Z"/>
    <path id="gm47" d="M304 10Q238 10 189 -15Q140 -40 113 -88Q86 -136 86 -201V-529Q86 -595 113 -643Q140 -690 189 -715Q238 -740 304 -740Q370 -740 419 -714Q467 -689 494 -642Q520 -595 520 -529H426Q426 -590 394 -623Q362 -656 304 -656Q246 -656 213 -624Q180 -591 180 -530V-201Q180 -140 213 -106Q246 -73 304 -73Q362 -73 394 -106Q426 -140 426 -201V-289H281V-374H520V-201Q520 -136 494 -89Q467 -41 419 -16Q370 10 304 10Z"/>
    <path id="gm48" d="M91 0V-730H185V-420H415V-730H509V0H415V-334H185V0Z"/>
    <path id="gm49" d="M104 0V-85H252V-645H104V-730H496V-645H348V-85H496V0Z"/>
    <path id="gm4b" d="M90 0V-730H184V-419H290L449 -730H551L372 -379L561 0H454L287 -336H184V0Z"/>
    <path id="gm4c" d="M114 0V-730H207V-85H535V0Z"/>
    <path id="gm4d" d="M74 0V-730H195L270 -494Q281 -462 290 -431Q299 -400 303 -383Q308 -400 315 -431Q323 -462 333 -495L405 -730H526V0H435V-261Q435 -306 438 -362Q441 -418 446 -477Q451 -535 456 -589Q462 -642 466 -682L350 -319H253L136 -682Q141 -643 146 -592Q151 -540 155 -483Q159 -425 162 -368Q165 -311 165 -261V0Z"/>
    <path id="gm4e" d="M88 0V-730H211L432 -109Q430 -134 428 -172Q425 -209 424 -250Q422 -291 422 -327V-730H512V0H389L169 -621Q171 -597 173 -560Q175 -523 176 -482Q178 -441 178 -405V0Z"/>
    <path id="gm4f" d="M300 10Q234 10 186 -15Q138 -40 112 -88Q86 -136 86 -201V-529Q86 -595 112 -643Q138 -690 186 -715Q234 -740 300 -740Q366 -740 414 -715Q462 -690 488 -643Q514 -595 514 -530V-201Q514 -136 488 -88Q462 -40 414 -15Q366 10 300 10ZM300 -74Q358 -74 389 -107Q420 -140 420 -201V-529Q420 -590 389 -623Q358 -656 300 -656Q243 -656 211 -623Q180 -590 180 -529V-201Q180 -140 211 -107Q243 -74 300 -74Z"/>
    <path id="gm50" d="M90 0V-730H326Q395 -730 445 -703Q496 -677 523 -628Q551 -580 551 -514Q551 -449 523 -400Q496 -351 445 -325Q395 -298 326 -298H184V0ZM184 -382H326Q385 -382 420 -418Q455 -454 455 -514Q455 -575 420 -610Q385 -646 326 -646H184Z"/>
    <path id="gm52" d="M90 0V-730H317Q383 -730 432 -703Q482 -677 509 -630Q536 -583 536 -519Q536 -445 498 -392Q460 -339 394 -319L546 0H437L298 -308H184V0ZM184 -392H317Q373 -392 406 -427Q440 -462 440 -519Q440 -577 406 -612Q373 -646 317 -646H184Z"/>
    <path id="gm53" d="M304 10Q231 10 180 -14Q128 -38 100 -83Q71 -128 71 -191H164Q164 -137 201 -105Q238 -74 304 -74Q366 -74 401 -104Q436 -135 436 -189Q436 -232 413 -264Q389 -297 346 -309L248 -340Q172 -363 131 -417Q90 -471 90 -545Q90 -604 117 -648Q143 -692 192 -716Q240 -741 306 -741Q402 -741 461 -687Q519 -634 520 -544H427Q427 -597 395 -627Q363 -657 304 -657Q247 -657 215 -630Q183 -602 183 -553Q183 -509 207 -476Q231 -444 275 -430L374 -399Q448 -376 489 -321Q529 -266 529 -191Q529 -131 501 -85Q473 -40 422 -15Q371 10 304 10Z"/>
    <path id="gm54" d="M253 0V-645H54V-731H546V-645H347V0Z"/>
    <path id="gm56" d="M236 0 49 -730H145L268 -236Q280 -186 289 -142Q298 -98 302 -74Q306 -98 315 -142Q323 -186 335 -236L457 -730H551L363 0Z"/>
    <path id="gm57" d="M107 0 24 -730H112L166 -193Q168 -172 170 -148Q172 -124 174 -103Q175 -82 175 -67Q177 -82 179 -103Q180 -124 183 -148Q185 -172 188 -193L255 -730H350L411 -193Q414 -172 416 -148Q419 -124 421 -103Q424 -82 425 -67Q426 -82 428 -103Q429 -124 431 -148Q434 -172 436 -193L491 -730H576L491 0H375L314 -546Q312 -569 309 -591Q307 -613 305 -633Q303 -653 302 -665Q301 -653 298 -633Q296 -613 294 -591Q292 -569 289 -546L223 0Z"/>
    <path id="gm59" d="M253 0V-272L34 -730H131L272 -435Q285 -409 292 -391Q299 -372 301 -363Q303 -372 311 -391Q319 -409 331 -435L469 -730H566L347 -272V0Z"/>
    <path id="gm5f" d="M60 104V25H540V104Z"/>
    <path id="gm61" d="M251 10Q164 10 114 -35Q64 -79 64 -155Q64 -232 114 -277Q165 -321 251 -321H418V-375Q418 -425 388 -452Q358 -479 303 -479Q255 -479 222 -458Q190 -438 185 -404H92Q101 -475 159 -518Q217 -560 305 -560Q401 -560 456 -511Q512 -462 512 -378V0H420V-104H405L420 -120Q420 -60 374 -25Q327 10 251 10ZM275 -63Q337 -63 378 -95Q418 -126 418 -176V-252H253Q209 -252 183 -228Q158 -203 158 -161Q158 -116 189 -89Q220 -63 275 -63Z"/>
    <path id="gm62" d="M333 10Q265 10 225 -27Q184 -63 184 -127L203 -105H184V0H90V-730H184V-571L182 -445H203L184 -423Q184 -486 225 -523Q266 -560 333 -560Q416 -560 466 -505Q516 -450 516 -354V-195Q516 -100 466 -45Q416 10 333 10ZM302 -71Q358 -71 391 -104Q423 -138 423 -201V-349Q423 -412 391 -446Q358 -479 302 -479Q248 -479 216 -445Q184 -410 184 -349V-201Q184 -140 216 -105Q248 -71 302 -71Z"/>
    <path id="gm63" d="M304 10Q238 10 188 -15Q138 -40 111 -88Q84 -136 84 -201V-349Q84 -415 111 -463Q138 -510 188 -535Q238 -560 304 -560Q400 -560 458 -509Q517 -458 520 -369H426Q423 -421 391 -449Q359 -477 304 -477Q246 -477 211 -444Q177 -411 177 -350V-201Q177 -140 211 -106Q246 -73 304 -73Q359 -73 391 -101Q423 -130 426 -181H520Q517 -92 458 -41Q400 10 304 10Z"/>
    <path id="gm64" d="M267 10Q184 10 134 -45Q84 -100 84 -195V-354Q84 -450 134 -505Q184 -560 267 -560Q335 -560 375 -523Q416 -486 416 -423L397 -445H418L416 -571V-730H510V0H416V-105H397L416 -127Q416 -63 375 -27Q335 10 267 10ZM298 -71Q353 -71 385 -105Q416 -140 416 -201V-349Q416 -410 385 -445Q353 -479 298 -479Q242 -479 209 -446Q177 -412 177 -349V-201Q177 -138 209 -104Q242 -71 298 -71Z"/>
    <path id="gm65" d="M300 10Q235 10 186 -16Q137 -42 110 -90Q84 -137 84 -201V-349Q84 -414 110 -461Q137 -508 186 -534Q235 -560 300 -560Q366 -560 414 -534Q463 -508 490 -461Q516 -414 516 -349V-252H175V-201Q175 -136 207 -102Q240 -68 300 -68Q351 -68 383 -86Q414 -105 421 -141H514Q505 -71 446 -31Q387 10 300 10ZM425 -313V-350Q425 -414 393 -448Q361 -483 300 -483Q240 -483 207 -448Q175 -414 175 -349V-321L432 -321Z"/>
    <path id="gm66" d="M219 0V-409H59V-494H219V-588Q219 -654 260 -692Q302 -730 375 -730H536V-645H375Q345 -645 328 -631Q312 -616 312 -588V-494H536V-409H312V0Z"/>
    <path id="gm67" d="M160 180V96H334Q376 96 396 77Q415 57 415 18V-49L417 -150H398L416 -166Q416 -105 376 -70Q336 -35 269 -35Q184 -35 135 -90Q86 -146 86 -240V-355Q86 -450 135 -505Q184 -560 269 -560Q336 -560 376 -525Q416 -489 416 -429L398 -445H416L416 -550H509V18Q509 93 462 136Q416 180 333 180ZM298 -116Q353 -116 385 -150Q416 -184 416 -245V-349Q416 -410 385 -445Q353 -479 298 -479Q242 -479 211 -446Q180 -412 180 -349V-245Q180 -183 211 -149Q242 -116 298 -116Z"/>
    <path id="gm68" d="M90 0V-730H184V-550L184 -445H204L184 -423Q184 -488 223 -524Q262 -560 331 -560Q414 -560 463 -509Q512 -457 512 -369V0H418V-359Q418 -417 387 -449Q356 -481 303 -481Q248 -481 216 -446Q184 -412 184 -349V0Z"/>
    <path id="gm69" d="M84 0V-85H279V-465H109V-550H372V-85H555V0ZM315 -648Q282 -648 262 -666Q243 -683 243 -712Q243 -743 262 -760Q282 -778 315 -778Q349 -778 368 -760Q387 -743 387 -712Q387 -683 368 -666Q349 -648 315 -648Z"/>
    <path id="gm6b" d="M93 0V-730H187V-324H291L448 -550H555L372 -288L558 0H449L292 -243H187V0Z"/>
    <path id="gm6c" d="M376 0Q327 0 291 -19Q254 -39 234 -74Q214 -110 214 -157V-645H30V-730H307V-157Q307 -124 326 -104Q345 -85 377 -85H551V0Z"/>
    <path id="gm6d" d="M65 0V-550H146V-483H164L150 -460Q150 -506 175 -533Q199 -560 241 -560Q287 -560 312 -526Q337 -492 337 -430L310 -483H352L333 -460Q333 -506 359 -533Q384 -560 426 -560Q478 -560 507 -521Q535 -482 535 -418V0H450V-418Q450 -452 436 -470Q421 -489 394 -489Q367 -489 352 -471Q337 -453 337 -419V0H263V-418Q263 -453 248 -471Q233 -489 205 -489Q178 -489 164 -471Q150 -453 150 -419V0Z"/>
    <path id="gm6e" d="M90 0V-550H184V-445H204L184 -423Q184 -488 223 -524Q262 -560 331 -560Q414 -560 463 -509Q512 -457 512 -369V0H418V-359Q418 -417 387 -448Q356 -479 303 -479Q248 -479 216 -446Q184 -412 184 -349V0Z"/>
    <path id="gm6f" d="M300 8Q234 8 185 -17Q137 -42 110 -90Q84 -137 84 -202V-348Q84 -414 110 -461Q137 -508 185 -533Q234 -558 300 -558Q366 -558 415 -533Q463 -508 490 -461Q516 -414 516 -348V-202Q516 -137 490 -90Q463 -42 415 -17Q366 8 300 8ZM300 -75Q358 -75 391 -107Q423 -140 423 -202V-348Q423 -410 391 -443Q358 -475 300 -475Q243 -475 210 -443Q177 -410 177 -348V-202Q177 -140 210 -107Q243 -75 300 -75Z"/>
    <path id="gm70" d="M90 180V-550H184V-445H203L184 -423Q184 -487 225 -523Q266 -560 334 -560Q417 -560 467 -505Q516 -451 516 -355V-196Q516 -132 494 -86Q471 -40 431 -15Q390 10 334 10Q267 10 226 -27Q184 -64 184 -127L203 -105H182L184 21V180ZM303 -71Q359 -71 391 -104Q423 -138 423 -201V-349Q423 -412 391 -446Q359 -479 303 -479Q249 -479 216 -445Q184 -410 184 -349V-201Q184 -140 216 -105Q249 -71 303 -71Z"/>
    <path id="gm72" d="M109 0V-550H200V-445H222L193 -380Q193 -469 231 -515Q270 -560 346 -560Q433 -560 485 -505Q536 -451 536 -358V-324H442V-349Q442 -413 411 -447Q380 -481 323 -481Q267 -481 235 -447Q203 -412 203 -349V0Z"/>
    <path id="gm73" d="M283 8Q226 8 184 -10Q142 -27 117 -60Q92 -92 88 -136H181Q187 -108 213 -91Q239 -74 283 -74H325Q377 -74 403 -95Q429 -116 429 -152Q429 -186 405 -206Q382 -226 336 -233L263 -245Q181 -259 141 -295Q101 -332 101 -402Q101 -477 148 -517Q196 -558 290 -558H328Q409 -558 457 -521Q506 -483 516 -420H422Q416 -445 393 -461Q369 -476 328 -476H290Q240 -476 217 -457Q194 -439 194 -401Q194 -368 214 -352Q234 -337 276 -330L350 -318Q440 -304 481 -266Q522 -228 522 -156Q522 -79 473 -35Q424 8 325 8Z"/>
    <path id="gm74" d="M360 0Q288 0 248 -39Q208 -77 208 -147V-465H54V-550H208V-705H302V-550H521V-465H302V-147Q302 -85 361 -85H511V0Z"/>
    <path id="gm75" d="M299 10Q203 10 146 -47Q88 -103 88 -201V-550H182V-201Q182 -140 213 -106Q245 -72 299 -72Q354 -72 386 -106Q418 -140 418 -201V-550H512V-201Q512 -103 453 -47Q395 10 299 10Z"/>
    <path id="gm76" d="M237 0 53 -550H149L269 -184Q280 -151 289 -120Q298 -90 302 -72Q307 -90 316 -120Q325 -151 335 -184L452 -550H547L363 0Z"/>
    <path id="gm77" d="M121 0 34 -550H116L170 -165Q173 -143 177 -116Q180 -90 182 -72Q184 -90 189 -116Q193 -143 196 -165L257 -550H344L404 -165Q407 -143 411 -116Q416 -90 418 -72Q420 -90 424 -116Q429 -143 432 -165L488 -550H566L475 0H373L315 -376Q311 -404 306 -432Q301 -461 299 -478Q297 -461 293 -432Q289 -404 284 -376L223 0Z"/>
    <path id="gm78" d="M49 0 243 -283 61 -550H170L277 -384Q284 -372 290 -359Q297 -346 301 -338Q304 -346 311 -359Q317 -372 324 -384L432 -550H540L358 -282L551 0H442L326 -177Q319 -188 312 -203Q306 -217 301 -226Q297 -217 289 -203Q282 -188 274 -177L157 0Z"/>
    <path id="gm79" d="M177 180 257 -34 53 -550H157L282 -216Q289 -198 296 -174Q302 -150 306 -133Q310 -150 316 -174Q322 -198 329 -216L446 -550H547L276 180Z"/>
    <path id="gm7a" d="M89 0V-92L395 -465H97V-550H500V-458L189 -85H511V0Z"/>
    <path id="gmb7" d="M300 -260Q262 -260 239 -282Q216 -304 216 -342Q216 -381 239 -404Q262 -428 300 -428Q339 -428 361 -404Q384 -381 384 -342Q384 -304 361 -282Q339 -260 300 -260Z"/>
    <path id="gm2014" d="M0 -288V-372H600V-288Z"/>
  </defs>
  <style>
    .ico { fill: none; stroke-width: 1.75; stroke-linecap: round; stroke-linejoin: round; }
    /* MOTION RULE: cards never animate — motion is ONLY this connector dash-flow. */
    .plug { fill: none; stroke: #6d28d9; stroke-width: 1.5; stroke-linecap: round; stroke-dasharray: 5 7; }
    .plug-flow { animation: plug-flow 1200ms linear infinite; }
    @keyframes plug-flow { to { stroke-dashoffset: -24; } }
    @media (prefers-reduced-motion: reduce) {
      .plug-flow { animation: none; }
    }
  </style>
<g transform="translate(38.92 40.85) scale(0.01465)" fill="#6d28d9"><use href="#gm4d" x="0"/><use href="#gm45" x="940"/><use href="#gm4d" x="1880"/><use href="#gm4f" x="2820"/><use href="#gm52" x="3760"/><use href="#gm59" x="4700"/><use href="#gm54" x="6580"/><use href="#gm49" x="7520"/><use href="#gm45" x="8460"/><use href="#gm52" x="9400"/><use href="#gm53" x="10340"/></g>
<path transform="translate(38.98 54.39) scale(0.01132 -0.01132)" d="M304.0 -10Q198.0 -10 135.0 46.0Q72.0 102 72.0 200H162.0Q162.0 139 201.0 104.5Q240.0 70 304.0 70Q366.0 70 403.0 106.0Q440.0 142 440.0 200Q440.0 244 416.5 276.5Q393.0 309 349.0 321L238.0 352Q169.0 372 129.5 423.5Q90.0 475 90.0 545Q90.0 603 116.0 647.0Q142.0 691 189.0 715.5Q236.0 740 297.0 740Q359.0 740 406.5 715.5Q454.0 691 481.0 647.5Q508.0 604 508.0 547H418.0Q418.0 597 384.0 628.5Q350.0 660 297.0 660Q244.0 660 211.0 628.5Q178.0 597 178.0 547Q178.0 507 199.5 478.5Q221.0 450 260.0 439L374.0 407Q447.0 387 487.5 331.5Q528.0 276 528.0 200Q528.0 104 467.0 47.0Q406.0 -10 304.0 -10ZM1005.0 0V82H1154.0V648H1005.0V730H1395.0V648H1246.0V82H1395.0V0ZM1890.0 0V730H2010.0L2233.0 105Q2231.0 130 2228.5 166.5Q2226.0 203 2224.5 243.5Q2223.0 284 2223.0 320V730H2310.0V0H2190.0L1968.0 625Q1970.0 601 1972.0 564.5Q1974.0 528 1975.5 487.5Q1977.0 447 1977.0 410V0ZM2792.0 0V730H2882.0V416H2990.0L3152.0 730H3250.0L3069.0 378L3260.0 0H3157.0L2987.0 337H2882.0V0ZM3904.0 -10Q3798.0 -10 3735.0 46.0Q3672.0 102 3672.0 200H3762.0Q3762.0 139 3801.0 104.5Q3840.0 70 3904.0 70Q3966.0 70 4003.0 106.0Q4040.0 142 4040.0 200Q4040.0 244 4016.5 276.5Q3993.0 309 3949.0 321L3838.0 352Q3769.0 372 3729.5 423.5Q3690.0 475 3690.0 545Q3690.0 603 3716.0 647.0Q3742.0 691 3789.0 715.5Q3836.0 740 3897.0 740Q3959.0 740 4006.5 715.5Q4054.0 691 4081.0 647.5Q4108.0 604 4108.0 547H4018.0Q4018.0 597 3984.0 628.5Q3950.0 660 3897.0 660Q3844.0 660 3811.0 628.5Q3778.0 597 3778.0 547Q3778.0 507 3799.5 478.5Q3821.0 450 3860.0 439L3974.0 407Q4047.0 387 4087.5 331.5Q4128.0 276 4128.0 200Q4128.0 104 4067.0 47.0Q4006.0 -10 3904.0 -10ZM5450.0 0 5640.0 730H5761.0L5950.0 0H5859.0L5811.0 194H5590.0L5542.0 0ZM5608.0 270H5792.0L5736.0 495Q5720.0 559 5711.0 602.0Q5702.0 645 5700.0 658Q5698.0 645 5689.0 602.0Q5680.0 559 5664.0 496ZM6604.0 -10Q6498.0 -10 6435.0 46.0Q6372.0 102 6372.0 200H6462.0Q6462.0 139 6501.0 104.5Q6540.0 70 6604.0 70Q6666.0 70 6703.0 106.0Q6740.0 142 6740.0 200Q6740.0 244 6716.5 276.5Q6693.0 309 6649.0 321L6538.0 352Q6469.0 372 6429.5 423.5Q6390.0 475 6390.0 545Q6390.0 603 6416.0 647.0Q6442.0 691 6489.0 715.5Q6536.0 740 6597.0 740Q6659.0 740 6706.5 715.5Q6754.0 691 6781.0 647.5Q6808.0 604 6808.0 547H6718.0Q6718.0 597 6684.0 628.5Q6650.0 660 6597.0 660Q6544.0 660 6511.0 628.5Q6478.0 597 6478.0 547Q6478.0 507 6499.5 478.5Q6521.0 450 6560.0 439L6674.0 407Q6747.0 387 6787.5 331.5Q6828.0 276 6828.0 200Q6828.0 104 6767.0 47.0Q6706.0 -10 6604.0 -10ZM8338.0 0 8150.0 730H8242.0L8367.0 233Q8380.0 181 8388.5 137.0Q8397.0 93 8401.0 70Q8405.0 93 8414.5 137.5Q8424.0 182 8437.0 234L8557.0 730H8650.0L8461.0 0ZM9050.0 0 9240.0 730H9361.0L9550.0 0H9459.0L9411.0 194H9190.0L9142.0 0ZM9208.0 270H9392.0L9336.0 495Q9320.0 559 9311.0 602.0Q9302.0 645 9300.0 658Q9298.0 645 9289.0 602.0Q9280.0 559 9264.0 496ZM10030.0 0V730H10120.0V82H10450.0V0ZM10905.0 0V82H11054.0V648H10905.0V730H11295.0V648H11146.0V82H11295.0V0ZM11792.0 0V730H11981.0Q12052.0 730 12103.5 703.0Q12155.0 676 12183.5 627.0Q12212.0 578 12212.0 511V220Q12212.0 153 12183.5 103.5Q12155.0 54 12103.5 27.0Q12052.0 0 11981.0 0ZM11882.0 80H11981.0Q12047.0 80 12084.5 117.0Q12122.0 154 12122.0 220V511Q12122.0 576 12084.5 613.0Q12047.0 650 11981.0 650H11882.0ZM12650.0 0 12840.0 730H12961.0L13150.0 0H13059.0L13011.0 194H12790.0L12742.0 0ZM12808.0 270H12992.0L12936.0 495Q12920.0 559 12911.0 602.0Q12902.0 645 12900.0 658Q12898.0 645 12889.0 602.0Q12880.0 559 12864.0 496ZM13755.0 0V648H13555.0V730H14045.0V648H13845.0V0ZM14500.0 0V730H14920.0V648H14589.0V422H14885.0V342H14589.0V82H14920.0V0ZM15392.0 0V730H15581.0Q15652.0 730 15703.5 703.0Q15755.0 676 15783.5 627.0Q15812.0 578 15812.0 511V220Q15812.0 153 15783.5 103.5Q15755.0 54 15703.5 27.0Q15652.0 0 15581.0 0ZM15482.0 80H15581.0Q15647.0 80 15684.5 117.0Q15722.0 154 15722.0 220V511Q15722.0 576 15684.5 613.0Q15647.0 650 15581.0 650H15482.0ZM17400.0 260Q17363.0 260 17340.5 282.0Q17318.0 304 17318.0 339Q17318.0 376 17340.5 399.0Q17363.0 422 17400.0 422Q17437.0 422 17459.5 399.0Q17482.0 376 17482.0 339Q17482.0 304 17459.5 282.0Q17437.0 260 17400.0 260ZM18993.0 0V730H19218.0Q19283.0 730 19332.0 703.5Q19381.0 677 19408.0 630.0Q19435.0 583 19435.0 520Q19435.0 446 19397.0 393.0Q19359.0 340 19296.0 319L19445.0 0H19346.0L19203.0 310H19082.0V0ZM19082.0 391H19218.0Q19274.0 391 19308.0 426.5Q19342.0 462 19342.0 520Q19342.0 579 19308.0 614.0Q19274.0 649 19218.0 649H19082.0ZM19905.0 0V82H20054.0V648H19905.0V730H20295.0V648H20146.0V82H20295.0V0ZM21004.0 -10Q20898.0 -10 20835.0 46.0Q20772.0 102 20772.0 200H20862.0Q20862.0 139 20901.0 104.5Q20940.0 70 21004.0 70Q21066.0 70 21103.0 106.0Q21140.0 142 21140.0 200Q21140.0 244 21116.5 276.5Q21093.0 309 21049.0 321L20938.0 352Q20869.0 372 20829.5 423.5Q20790.0 475 20790.0 545Q20790.0 603 20816.0 647.0Q20842.0 691 20889.0 715.5Q20936.0 740 20997.0 740Q21059.0 740 21106.5 715.5Q21154.0 691 21181.0 647.5Q21208.0 604 21208.0 547H21118.0Q21118.0 597 21084.0 628.5Q21050.0 660 20997.0 660Q20944.0 660 20911.0 628.5Q20878.0 597 20878.0 547Q20878.0 507 20899.5 478.5Q20921.0 450 20960.0 439L21074.0 407Q21147.0 387 21187.5 331.5Q21228.0 276 21228.0 200Q21228.0 104 21167.0 47.0Q21106.0 -10 21004.0 -10ZM21700.0 0V730H22120.0V648H21789.0V422H22085.0V342H21789.0V82H22120.0V0ZM22804.0 -10Q22698.0 -10 22635.0 46.0Q22572.0 102 22572.0 200H22662.0Q22662.0 139 22701.0 104.5Q22740.0 70 22804.0 70Q22866.0 70 22903.0 106.0Q22940.0 142 22940.0 200Q22940.0 244 22916.5 276.5Q22893.0 309 22849.0 321L22738.0 352Q22669.0 372 22629.5 423.5Q22590.0 475 22590.0 545Q22590.0 603 22616.0 647.0Q22642.0 691 22689.0 715.5Q22736.0 740 22797.0 740Q22859.0 740 22906.5 715.5Q22954.0 691 22981.0 647.5Q23008.0 604 23008.0 547H22918.0Q22918.0 597 22884.0 628.5Q22850.0 660 22797.0 660Q22744.0 660 22711.0 628.5Q22678.0 597 22678.0 547Q22678.0 507 22699.5 478.5Q22721.0 450 22760.0 439L22874.0 407Q22947.0 387 22987.5 331.5Q23028.0 276 23028.0 200Q23028.0 104 22967.0 47.0Q22906.0 -10 22804.0 -10ZM24600.0 -10Q24502.0 -10 24445.0 47.0Q24388.0 104 24388.0 210V520Q24388.0 626 24445.0 683.0Q24502.0 740 24600.0 740Q24698.0 740 24755.0 683.0Q24812.0 626 24812.0 521V210Q24812.0 104 24755.0 47.0Q24698.0 -10 24600.0 -10ZM24600.0 71Q24659.0 71 24690.5 104.5Q24722.0 138 24722.0 200V530Q24722.0 592 24690.5 625.5Q24659.0 659 24600.0 659Q24542.0 659 24510.0 625.5Q24478.0 592 24478.0 530V200Q24478.0 138 24510.0 104.5Q24542.0 71 24600.0 71ZM25290.0 0V730H25410.0L25633.0 105Q25631.0 130 25628.5 166.5Q25626.0 203 25624.5 243.5Q25623.0 284 25623.0 320V730H25710.0V0H25590.0L25368.0 625Q25370.0 601 25372.0 564.5Q25374.0 528 25375.5 487.5Q25377.0 447 25377.0 410V0ZM27093.0 0V730H27318.0Q27383.0 730 27432.0 703.5Q27481.0 677 27508.0 630.0Q27535.0 583 27535.0 520Q27535.0 446 27497.0 393.0Q27459.0 340 27396.0 319L27545.0 0H27446.0L27303.0 310H27182.0V0ZM27182.0 391H27318.0Q27374.0 391 27408.0 426.5Q27442.0 462 27442.0 520Q27442.0 579 27408.0 614.0Q27374.0 649 27318.0 649H27182.0ZM28000.0 0V730H28420.0V648H28089.0V422H28385.0V342H28089.0V82H28420.0V0ZM29108.0 -10Q29008.0 -10 28950.0 46.0Q28892.0 102 28892.0 200V530Q28892.0 628 28950.0 684.0Q29008.0 740 29108.0 740Q29206.0 740 29264.0 683.5Q29322.0 627 29322.0 530H29232.0Q29232.0 592 29199.5 625.5Q29167.0 659 29108.0 659Q29049.0 659 29015.5 625.5Q28982.0 592 28982.0 530V200Q28982.0 138 29015.5 104.5Q29049.0 71 29108.0 71Q29167.0 71 29199.5 104.5Q29232.0 138 29232.0 200H29322.0Q29322.0 103 29264.0 46.5Q29206.0 -10 29108.0 -10ZM29750.0 0 29940.0 730H30061.0L30250.0 0H30159.0L30111.0 194H29890.0L29842.0 0ZM29908.0 270H30092.0L30036.0 495Q30020.0 559 30011.0 602.0Q30002.0 645 30000.0 658Q29998.0 645 29989.0 602.0Q29980.0 559 29964.0 496ZM30730.0 0V730H30820.0V82H31150.0V0ZM31630.0 0V730H31720.0V82H32050.0V0Z" fill="#0a0a1299"/>
  <rect x="40" y="66" width="700" height="100" fill="#fafafe" stroke="#08081014" stroke-width="1"/>
  <rect x="39.5" y="65.5" width="2" height="101" fill="#6d28d9"/>
<g transform="translate(580.47 85.58) scale(0.00889)" fill="#0a0a1299"><use href="#gm54" x="0"/><use href="#gm49" x="880"/><use href="#gm45" x="1760"/><use href="#gm52" x="2640"/><use href="#gm5f" x="3520"/><use href="#gm30" x="4400"/><use href="#gm31" x="5280"/><use href="#gmb7" x="7040"/><use href="#gm45" x="8800"/><use href="#gm50" x="9680"/><use href="#gm48" x="10560"/><use href="#gm45" x="11440"/><use href="#gm4d" x="12320"/><use href="#gm45" x="13200"/><use href="#gm52" x="14080"/><use href="#gm41" x="14960"/><use href="#gm4c" x="15840"/></g>
  <svg x="62" y="92" width="24" height="24"><use href="#i-consolidate" class="ico" stroke="#6d28d9"/></svg>
<g transform="translate(97.15 113.00) scale(0.02714)" fill="#0a0a12"><use href="#gc57" x="0"/><use href="#gc4f" x="899"/><use href="#gc52" x="1619"/><use href="#gc4b" x="2314"/><use href="#gc49" x="2985"/><use href="#gc4e" x="3281"/><use href="#gc47" x="3998"/></g>
<g transform="translate(99.15 134.39) scale(0.01079)" fill="#0a0a1299"><use href="#gm30" x="0"/><use href="#gm30" x="700"/><use href="#gm2d" x="1400"/><use href="#gm69" x="2100"/><use href="#gm6e" x="2800"/><use href="#gm62" x="3500"/><use href="#gm6f" x="4200"/><use href="#gm78" x="4900"/><use href="#gmb7" x="6300"/><use href="#gm63" x="7700"/><use href="#gm75" x="8400"/><use href="#gm72" x="9100"/><use href="#gm72" x="9800"/><use href="#gm65" x="10500"/><use href="#gm6e" x="11200"/><use href="#gm74" x="11900"/><use href="#gm73" x="13300"/><use href="#gm65" x="14000"/><use href="#gm73" x="14700"/><use href="#gm73" x="15400"/><use href="#gm69" x="16100"/><use href="#gm6f" x="16800"/><use href="#gm6e" x="17500"/></g>
<g transform="translate(409.01 112.02) scale(0.01099)" fill="#52525b"><use href="#gm52" x="0"/><use href="#gm61" x="620"/><use href="#gm77" x="1240"/><use href="#gm63" x="2480"/><use href="#gm61" x="3100"/><use href="#gm70" x="3720"/><use href="#gm74" x="4340"/><use href="#gm75" x="4960"/><use href="#gm72" x="5580"/><use href="#gm65" x="6200"/><use href="#gm73" x="6820"/><use href="#gm2c" x="7440"/><use href="#gm75" x="8680"/><use href="#gm6e" x="9300"/><use href="#gm70" x="9920"/><use href="#gm72" x="10540"/><use href="#gm6f" x="11160"/><use href="#gm63" x="11780"/><use href="#gm65" x="12400"/><use href="#gm73" x="13020"/><use href="#gm73" x="13640"/><use href="#gm65" x="14260"/><use href="#gm64" x="14880"/><use href="#gm74" x="16120"/><use href="#gm68" x="16740"/><use href="#gm6f" x="17360"/><use href="#gm75" x="17980"/><use href="#gm67" x="18600"/><use href="#gm68" x="19220"/><use href="#gm74" x="19840"/><use href="#gm73" x="20460"/><use href="#gm2e" x="21080"/></g>
<g transform="translate(409.31 133.81) scale(0.00941)" fill="#6d28d9"><use href="#gm2f" x="0"/><use href="#gm62" x="640"/><use href="#gm72" x="1280"/><use href="#gm61" x="1920"/><use href="#gm69" x="2560"/><use href="#gm6e" x="3200"/><use href="#gm64" x="3840"/><use href="#gm75" x="4480"/><use href="#gm6d" x="5120"/><use href="#gm70" x="5760"/><use href="#gmb7" x="7040"/><use href="#gm2f" x="8320"/><use href="#gm63" x="8960"/><use href="#gm61" x="9600"/><use href="#gm70" x="10240"/><use href="#gm74" x="10880"/><use href="#gm75" x="11520"/><use href="#gm72" x="12160"/><use href="#gm65" x="12800"/><use href="#gmb7" x="14080"/><use href="#gm2f" x="15360"/><use href="#gm62" x="16000"/><use href="#gm6f" x="16640"/><use href="#gm6f" x="17280"/><use href="#gm6b" x="17920"/><use href="#gm6d" x="18560"/><use href="#gm61" x="19200"/><use href="#gm72" x="19840"/><use href="#gm6b" x="20480"/></g>
  <rect x="40" y="196" width="700" height="100" fill="#fafafe" stroke="#08081014" stroke-width="1"/>
  <rect x="39.5" y="195.5" width="2" height="101" fill="#6d28d9"/>
<g transform="translate(565.21 215.58) scale(0.00888)" fill="#0a0a1299"><use href="#gm54" x="0"/><use href="#gm49" x="880"/><use href="#gm45" x="1760"/><use href="#gm52" x="2640"/><use href="#gm5f" x="3520"/><use href="#gm30" x="4400"/><use href="#gm32" x="5280"/><use href="#gmb7" x="7040"/><use href="#gm50" x="8800"/><use href="#gm45" x="9680"/><use href="#gm52" x="10560"/><use href="#gm5f" x="11440"/><use href="#gm53" x="12320"/><use href="#gm45" x="13200"/><use href="#gm53" x="14080"/><use href="#gm53" x="14960"/><use href="#gm49" x="15840"/><use href="#gm4f" x="16720"/><use href="#gm4e" x="17600"/></g>
  <svg x="62" y="222" width="24" height="24"><use href="#i-clock" class="ico" stroke="#6d28d9"/></svg>
<g transform="translate(99.40 243.00) scale(0.02714)" fill="#0a0a12"><use href="#gc45" x="0"/><use href="#gc50" x="626"/><use href="#gc49" x="1292"/><use href="#gc53" x="1588"/><use href="#gc4f" x="2245"/><use href="#gc44" x="2965"/><use href="#gc49" x="3673"/><use href="#gc43" x="3969"/></g>
<g transform="translate(99.30 262.90) scale(0.00887)" fill="#0a0a1299"><use href="#gm30" x="0"/><use href="#gm37" x="700"/><use href="#gm2d" x="1400"/><use href="#gm6c" x="2100"/><use href="#gm6f" x="2800"/><use href="#gm67" x="3500"/><use href="#gm73" x="4200"/><use href="#gmb7" x="5600"/><use href="#gm73" x="7000"/><use href="#gm65" x="7700"/><use href="#gm73" x="8400"/><use href="#gm73" x="9100"/><use href="#gm69" x="9800"/><use href="#gm6f" x="10500"/><use href="#gm6e" x="11200"/><use href="#gm2b" x="12600"/><use href="#gm63" x="14000"/><use href="#gm68" x="14700"/><use href="#gm65" x="15400"/><use href="#gm63" x="16100"/><use href="#gm6b" x="16800"/><use href="#gm70" x="17500"/><use href="#gm6f" x="18200"/><use href="#gm69" x="18900"/><use href="#gm6e" x="19600"/><use href="#gm74" x="20300"/></g>
<g transform="translate(409.75 242.12) scale(0.01044)" fill="#52525b"><use href="#gm57" x="0"/><use href="#gm68" x="620"/><use href="#gm61" x="1240"/><use href="#gm74" x="1860"/><use href="#gm68" x="3100"/><use href="#gm61" x="3720"/><use href="#gm70" x="4340"/><use href="#gm70" x="4960"/><use href="#gm65" x="5580"/><use href="#gm6e" x="6200"/><use href="#gm65" x="6820"/><use href="#gm64" x="7440"/><use href="#gm2014" x="8680"/><use href="#gm73" x="9920"/><use href="#gm65" x="10540"/><use href="#gm73" x="11160"/><use href="#gm73" x="11780"/><use href="#gm69" x="12400"/><use href="#gm6f" x="13020"/><use href="#gm6e" x="13640"/><use href="#gm73" x="14260"/><use href="#gm2c" x="14880"/><use href="#gm64" x="16120"/><use href="#gm65" x="16740"/><use href="#gm63" x="17360"/><use href="#gm69" x="17980"/><use href="#gm73" x="18600"/><use href="#gm69" x="19220"/><use href="#gm6f" x="19840"/><use href="#gm6e" x="20460"/><use href="#gm73" x="21080"/><use href="#gm2c" x="21700"/><use href="#gm6e" x="22940"/><use href="#gm61" x="23560"/><use href="#gm72" x="24180"/><use href="#gm72" x="24800"/><use href="#gm61" x="25420"/><use href="#gm74" x="26040"/><use href="#gm69" x="26660"/><use href="#gm76" x="27280"/><use href="#gm65" x="27900"/><use href="#gm2e" x="28520"/></g>
<g transform="translate(409.31 263.81) scale(0.00941)" fill="#6d28d9"><use href="#gm2f" x="0"/><use href="#gm77" x="640"/><use href="#gm72" x="1280"/><use href="#gm61" x="1920"/><use href="#gm70" x="2560"/><use href="#gm75" x="3200"/><use href="#gm70" x="3840"/><use href="#gmb7" x="5120"/><use href="#gm61" x="6400"/><use href="#gm75" x="7040"/><use href="#gm74" x="7680"/><use href="#gm6f" x="8320"/><use href="#gm2d" x="8960"/><use href="#gm63" x="9600"/><use href="#gm68" x="10240"/><use href="#gm65" x="10880"/><use href="#gm63" x="11520"/><use href="#gm6b" x="12160"/><use href="#gm70" x="12800"/><use href="#gm6f" x="13440"/><use href="#gm69" x="14080"/><use href="#gm6e" x="14720"/><use href="#gm74" x="15360"/><use href="#gm73" x="16000"/></g>
  <rect x="40" y="326" width="700" height="100" fill="#fafafe" stroke="#08081014" stroke-width="1"/>
  <rect x="39.5" y="325.5" width="2" height="101" fill="#6d28d9"/>
<g transform="translate(549.59 345.58) scale(0.00888)" fill="#0a0a1299"><use href="#gm54" x="0"/><use href="#gm49" x="880"/><use href="#gm45" x="1760"/><use href="#gm52" x="2640"/><use href="#gm5f" x="3520"/><use href="#gm30" x="4400"/><use href="#gm33" x="5280"/><use href="#gmb7" x="7040"/><use href="#gm43" x="8800"/><use href="#gm52" x="9680"/><use href="#gm4f" x="10560"/><use href="#gm53" x="11440"/><use href="#gm53" x="12320"/><use href="#gm5f" x="13200"/><use href="#gm53" x="14080"/><use href="#gm45" x="14960"/><use href="#gm53" x="15840"/><use href="#gm53" x="16720"/><use href="#gm49" x="17600"/><use href="#gm4f" x="18480"/><use href="#gm4e" x="19360"/></g>
  <svg x="62" y="352" width="24" height="24"><use href="#i-memory" class="ico" stroke="#6d28d9"/></svg>
<g transform="translate(99.27 373.00) scale(0.02714)" fill="#0a0a12"><use href="#gc53" x="0"/><use href="#gc45" x="657"/><use href="#gc4d" x="1283"/><use href="#gc41" x="2104"/><use href="#gc4e" x="2770"/><use href="#gc54" x="3487"/><use href="#gc49" x="4091"/><use href="#gc43" x="4387"/></g>
<g transform="translate(99.34 392.99) scale(0.00842)" fill="#0a0a1299"><use href="#gm30" x="0"/><use href="#gm35" x="700"/><use href="#gm2d" x="1400"/><use href="#gm61" x="2100"/><use href="#gm67" x="2800"/><use href="#gm65" x="3500"/><use href="#gm6e" x="4200"/><use href="#gm74" x="4900"/><use href="#gmb7" x="6300"/><use href="#gm4d" x="7700"/><use href="#gm45" x="8400"/><use href="#gm4d" x="9100"/><use href="#gm4f" x="9800"/><use href="#gm52" x="10500"/><use href="#gm59" x="11200"/><use href="#gm2e" x="11900"/><use href="#gm6d" x="12600"/><use href="#gm64" x="13300"/><use href="#gm2b" x="14700"/><use href="#gm6d" x="16100"/><use href="#gm65" x="16800"/><use href="#gm6d" x="17500"/><use href="#gm6f" x="18200"/><use href="#gm72" x="18900"/><use href="#gm79" x="19600"/><use href="#gm2f" x="20300"/></g>
<g transform="translate(408.92 372.12) scale(0.01044)" fill="#52525b"><use href="#gm49" x="0"/><use href="#gm64" x="620"/><use href="#gm65" x="1240"/><use href="#gm6e" x="1860"/><use href="#gm74" x="2480"/><use href="#gm69" x="3100"/><use href="#gm74" x="3720"/><use href="#gm79" x="4340"/><use href="#gm2c" x="4960"/><use href="#gm70" x="6200"/><use href="#gm72" x="6820"/><use href="#gm65" x="7440"/><use href="#gm66" x="8060"/><use href="#gm65" x="8680"/><use href="#gm72" x="9300"/><use href="#gm65" x="9920"/><use href="#gm6e" x="10540"/><use href="#gm63" x="11160"/><use href="#gm65" x="11780"/><use href="#gm73" x="12400"/><use href="#gm2c" x="13020"/><use href="#gm72" x="14260"/><use href="#gm65" x="14880"/><use href="#gm63" x="15500"/><use href="#gm75" x="16120"/><use href="#gm72" x="16740"/><use href="#gm72" x="17360"/><use href="#gm69" x="17980"/><use href="#gm6e" x="18600"/><use href="#gm67" x="19220"/><use href="#gm70" x="20460"/><use href="#gm61" x="21080"/><use href="#gm74" x="21700"/><use href="#gm74" x="22320"/><use href="#gm65" x="22940"/><use href="#gm72" x="23560"/><use href="#gm6e" x="24180"/><use href="#gm73" x="24800"/><use href="#gm2e" x="25420"/></g>
<g transform="translate(409.31 393.81) scale(0.00941)" fill="#6d28d9"><use href="#gm2f" x="0"/><use href="#gm6c" x="640"/><use href="#gm65" x="1280"/><use href="#gm61" x="1920"/><use href="#gm72" x="2560"/><use href="#gm6e" x="3200"/><use href="#gmb7" x="4480"/><use href="#gm2f" x="5760"/><use href="#gm72" x="6400"/><use href="#gm65" x="7040"/><use href="#gm63" x="7680"/><use href="#gm61" x="8320"/><use href="#gm70" x="8960"/><use href="#gmb7" x="10240"/><use href="#gm2f" x="11520"/><use href="#gm6d" x="12160"/><use href="#gm65" x="12800"/><use href="#gm6d" x="13440"/><use href="#gm6f" x="14080"/><use href="#gm72" x="14720"/><use href="#gm79" x="15360"/><use href="#gm2d" x="16000"/><use href="#gm72" x="16640"/><use href="#gm65" x="17280"/><use href="#gm76" x="17920"/><use href="#gm69" x="18560"/><use href="#gm65" x="19200"/><use href="#gm77" x="19840"/></g>
  <rect x="40" y="456" width="700" height="100" fill="#fafafe" stroke="#08081014" stroke-width="1"/>
  <rect x="39.5" y="455.5" width="2" height="101" fill="#6d28d9"/>
<g transform="translate(596.01 475.58) scale(0.00889)" fill="#0a0a1299"><use href="#gm54" x="0"/><use href="#gm49" x="880"/><use href="#gm45" x="1760"/><use href="#gm52" x="2640"/><use href="#gm5f" x="3520"/><use href="#gm30" x="4400"/><use href="#gm34" x="5280"/><use href="#gmb7" x="7040"/><use href="#gm46" x="8800"/><use href="#gm4f" x="9680"/><use href="#gm52" x="10560"/><use href="#gm45" x="11440"/><use href="#gm56" x="12320"/><use href="#gm45" x="13200"/><use href="#gm52" x="14080"/></g>
  <svg x="62" y="482" width="24" height="24"><use href="#i-skill" class="ico" stroke="#6d28d9"/></svg>
<g transform="translate(99.40 503.00) scale(0.02714)" fill="#0a0a12"><use href="#gc4b" x="0"/><use href="#gc4e" x="671"/><use href="#gc4f" x="1388"/><use href="#gc57" x="2108"/><use href="#gc4c" x="3007"/><use href="#gc45" x="3588"/><use href="#gc44" x="4214"/><use href="#gc47" x="4922"/><use href="#gc45" x="5618"/></g>
<g transform="translate(99.30 522.90) scale(0.00887)" fill="#0a0a1299"><use href="#gm30" x="0"/><use href="#gm33" x="700"/><use href="#gm2d" x="1400"/><use href="#gm6b" x="2100"/><use href="#gm6e" x="2800"/><use href="#gm6f" x="3500"/><use href="#gm77" x="4200"/><use href="#gm6c" x="4900"/><use href="#gm65" x="5600"/><use href="#gm64" x="6300"/><use href="#gm67" x="7000"/><use href="#gm65" x="7700"/><use href="#gmb7" x="9100"/><use href="#gm64" x="10500"/><use href="#gm69" x="11200"/><use href="#gm73" x="11900"/><use href="#gm74" x="12600"/><use href="#gm69" x="13300"/><use href="#gm6c" x="14000"/><use href="#gm6c" x="14700"/><use href="#gm65" x="15400"/><use href="#gm64" x="16100"/><use href="#gm6e" x="17500"/><use href="#gm6f" x="18200"/><use href="#gm74" x="18900"/><use href="#gm65" x="19600"/><use href="#gm73" x="20300"/></g>
<g transform="translate(409.10 502.12) scale(0.01044)" fill="#52525b"><use href="#gm43" x="0"/><use href="#gm72" x="620"/><use href="#gm79" x="1240"/><use href="#gm73" x="1860"/><use href="#gm74" x="2480"/><use href="#gm61" x="3100"/><use href="#gm6c" x="3720"/><use href="#gm6c" x="4340"/><use href="#gm69" x="4960"/><use href="#gm7a" x="5580"/><use href="#gm65" x="6200"/><use href="#gm64" x="6820"/><use href="#gm69" x="8060"/><use href="#gm6e" x="8680"/><use href="#gm73" x="9300"/><use href="#gm69" x="9920"/><use href="#gm67" x="10540"/><use href="#gm68" x="11160"/><use href="#gm74" x="11780"/><use href="#gm73" x="12400"/><use href="#gm2014" x="13640"/><use href="#gm77" x="14880"/><use href="#gm68" x="15500"/><use href="#gm61" x="16120"/><use href="#gm74" x="16740"/><use href="#gm79" x="17980"/><use href="#gm6f" x="18600"/><use href="#gm75" x="19220"/><use href="#gm6b" x="20460"/><use href="#gm6e" x="21080"/><use href="#gm6f" x="21700"/><use href="#gm77" x="22320"/><use href="#gm66" x="23560"/><use href="#gm6f" x="24180"/><use href="#gm72" x="24800"/><use href="#gm65" x="25420"/><use href="#gm76" x="26040"/><use href="#gm65" x="26660"/><use href="#gm72" x="27280"/><use href="#gm2e" x="27900"/></g>
<g transform="translate(409.31 523.81) scale(0.00941)" fill="#6d28d9"><use href="#gm2f" x="0"/><use href="#gm64" x="640"/><use href="#gm69" x="1280"/><use href="#gm73" x="1920"/><use href="#gm74" x="2560"/><use href="#gm69" x="3200"/><use href="#gm6c" x="3840"/><use href="#gm6c" x="4480"/><use href="#gmb7" x="5760"/><use href="#gm2f" x="7040"/><use href="#gm63" x="7680"/><use href="#gm6f" x="8320"/><use href="#gm6e" x="8960"/><use href="#gm6e" x="9600"/><use href="#gm65" x="10240"/><use href="#gm63" x="10880"/><use href="#gm74" x="11520"/><use href="#gmb7" x="12800"/><use href="#gm2f" x="14080"/><use href="#gm77" x="14720"/><use href="#gm65" x="15360"/><use href="#gm65" x="16000"/><use href="#gm6b" x="16640"/><use href="#gm6c" x="17280"/><use href="#gm79" x="17920"/></g>
  <path class="plug" d="M352 166 V191" opacity="0.22"/>
  <path class="plug plug-flow" d="M352 166 V191" style="animation-delay:0ms"/>
  <path class="plug" d="M388 191 V166" opacity="0.22"/>
  <path class="plug plug-flow" d="M388 191 V166" style="animation-delay:150ms"/>
  <path class="plug" d="M352 296 V321" opacity="0.22"/>
  <path class="plug plug-flow" d="M352 296 V321" style="animation-delay:300ms"/>
  <path class="plug" d="M388 321 V296" opacity="0.22"/>
  <path class="plug plug-flow" d="M388 321 V296" style="animation-delay:450ms"/>
  <path class="plug" d="M352 426 V451" opacity="0.22"/>
  <path class="plug plug-flow" d="M352 426 V451" style="animation-delay:600ms"/>
  <path class="plug" d="M388 451 V426" opacity="0.22"/>
  <path class="plug plug-flow" d="M388 451 V426" style="animation-delay:750ms"/>
  <!-- ARCHIVE: cold storage — dormant, never deleted, out of active thinking until recalled -->
  <path d="M370 562 V600" fill="none" stroke="#a1a1aa" stroke-width="1.5" stroke-linecap="round" stroke-dasharray="5 7" opacity="0.5"/>
  <rect x="40" y="606" width="700" height="100" fill="#fafafe" stroke="#08081014" stroke-width="1"/>
  <rect x="39.5" y="605.5" width="2" height="101" fill="#a1a1aa"/>
    <path transform="translate(567.33 625.58) scale(0.00889 -0.00889)" d="M308.0 -10Q208.0 -10 150.0 46.0Q92.0 102 92.0 200V530Q92.0 628 150.0 684.0Q208.0 740 308.0 740Q406.0 740 464.0 683.5Q522.0 627 522.0 530H432.0Q432.0 592 399.5 625.5Q367.0 659 308.0 659Q249.0 659 215.5 625.5Q182.0 592 182.0 530V200Q182.0 138 215.5 104.5Q249.0 71 308.0 71Q367.0 71 399.5 104.5Q432.0 138 432.0 200H522.0Q522.0 103 464.0 46.5Q406.0 -10 308.0 -10ZM1180.0 -10Q1082.0 -10 1025.0 47.0Q968.0 104 968.0 210V520Q968.0 626 1025.0 683.0Q1082.0 740 1180.0 740Q1278.0 740 1335.0 683.0Q1392.0 626 1392.0 521V210Q1392.0 104 1335.0 47.0Q1278.0 -10 1180.0 -10ZM1180.0 71Q1239.0 71 1270.5 104.5Q1302.0 138 1302.0 200V530Q1302.0 592 1270.5 625.5Q1239.0 659 1180.0 659Q1122.0 659 1090.0 625.5Q1058.0 592 1058.0 530V200Q1058.0 138 1090.0 104.5Q1122.0 71 1180.0 71ZM1890.0 0V730H1980.0V82H2310.0V0ZM2732.0 0V730H2921.0Q2992.0 730 3043.5 703.0Q3095.0 676 3123.5 627.0Q3152.0 578 3152.0 511V220Q3152.0 153 3123.5 103.5Q3095.0 54 3043.5 27.0Q2992.0 0 2921.0 0ZM2822.0 80H2921.0Q2987.0 80 3024.5 117.0Q3062.0 154 3062.0 220V511Q3062.0 576 3024.5 613.0Q2987.0 650 2921.0 650H2822.0ZM4700.0 260Q4663.0 260 4640.5 282.0Q4618.0 304 4618.0 339Q4618.0 376 4640.5 399.0Q4663.0 422 4700.0 422Q4737.0 422 4759.5 399.0Q4782.0 376 4782.0 339Q4782.0 304 4759.5 282.0Q4737.0 260 4700.0 260ZM6250.0 0V730H6370.0L6593.0 105Q6591.0 130 6588.5 166.5Q6586.0 203 6584.5 243.5Q6583.0 284 6583.0 320V730H6670.0V0H6550.0L6328.0 625Q6330.0 601 6332.0 564.5Q6334.0 528 6335.5 487.5Q6337.0 447 6337.0 410V0ZM7140.0 0V730H7560.0V648H7229.0V422H7525.0V342H7229.0V82H7560.0V0ZM8158.0 0 7970.0 730H8062.0L8187.0 233Q8200.0 181 8208.5 137.0Q8217.0 93 8221.0 70Q8225.0 93 8234.5 137.5Q8244.0 182 8257.0 234L8377.0 730H8470.0L8281.0 0ZM8900.0 0V730H9320.0V648H8989.0V422H9285.0V342H8989.0V82H9320.0V0ZM9773.0 0V730H9998.0Q10063.0 730 10112.0 703.5Q10161.0 677 10188.0 630.0Q10215.0 583 10215.0 520Q10215.0 446 10177.0 393.0Q10139.0 340 10076.0 319L10225.0 0H10126.0L9983.0 310H9862.0V0ZM9862.0 391H9998.0Q10054.0 391 10088.0 426.5Q10122.0 462 10122.0 520Q10122.0 579 10088.0 614.0Q10054.0 649 9998.0 649H9862.0ZM11532.0 0V730H11721.0Q11792.0 730 11843.5 703.0Q11895.0 676 11923.5 627.0Q11952.0 578 11952.0 511V220Q11952.0 153 11923.5 103.5Q11895.0 54 11843.5 27.0Q11792.0 0 11721.0 0ZM11622.0 80H11721.0Q11787.0 80 11824.5 117.0Q11862.0 154 11862.0 220V511Q11862.0 576 11824.5 613.0Q11787.0 650 11721.0 650H11622.0ZM12420.0 0V730H12840.0V648H12509.0V422H12805.0V342H12509.0V82H12840.0V0ZM13330.0 0V730H13420.0V82H13750.0V0ZM14180.0 0V730H14600.0V648H14269.0V422H14565.0V342H14269.0V82H14600.0V0ZM15215.0 0V648H15015.0V730H15505.0V648H15305.0V0ZM15940.0 0V730H16360.0V648H16029.0V422H16325.0V342H16029.0V82H16360.0V0ZM16812.0 0V730H17001.0Q17072.0 730 17123.5 703.0Q17175.0 676 17203.5 627.0Q17232.0 578 17232.0 511V220Q17232.0 153 17203.5 103.5Q17175.0 54 17123.5 27.0Q17072.0 0 17001.0 0ZM16902.0 80H17001.0Q17067.0 80 17104.5 117.0Q17142.0 154 17142.0 220V511Q17142.0 576 17104.5 613.0Q17067.0 650 17001.0 650H16902.0Z" fill="#a1a1aa"/>
  <svg x="62" y="632" width="24" height="24"><use href="#i-archive" class="ico" stroke="#a1a1aa"/></svg>
    <path transform="translate(97.15 653.00) scale(0.02714 -0.02714)" d="M340.0 700H464.0L597.0 0H459.0L431.0 155H185.0L99.0 0H-39.0ZM418.0 267 373.0 533H371.0L233.0 267ZM1279.0 372 1203.0 307 1258.0 232 1217.0 0H1081.0L1117.0 207L1073.0 268H851.0L804.0 0H668.0L791.0 700H1221.0L1316.0 584ZM871.0 380H1111.0L1152.0 415L1176.0 551L1147.0 586H907.0ZM1354.0 124 1437.0 593 1562.0 700H1903.0L2004.0 579L1986.0 480H1850.0L1860.0 537L1822.0 584H1622.0L1562.0 533L1497.0 167L1539.0 116H1739.0L1794.0 163L1805.0 220H1941.0L1920.0 105L1797.0 0H1456.0ZM2121.0 700H2257.0L2206.0 407H2501.0L2552.0 700H2688.0L2565.0 0H2429.0L2480.0 291H2185.0L2134.0 0H1998.0ZM2824.0 700H2960.0L2836.0 0H2700.0ZM3040.0 700H3174.0L3253.0 162H3255.0L3524.0 700H3670.0L3298.0 0H3166.0ZM3745.0 700H4250.0L4230.0 585H3861.0L3830.0 408H4170.0L4150.0 295H3810.0L3778.0 115H4147.0L4127.0 0H3622.0Z" fill="#71717a"/>
    <path transform="translate(99.15 674.39) scale(0.01079 -0.01079)" d="M300.0 -10Q199.0 -10 139.5 48.5Q80.0 107 80.0 205V525Q80.0 623 139.5 681.5Q199.0 740 300.0 740Q401.0 740 460.5 681.5Q520.0 623 520.0 525V205Q520.0 140 493.0 91.5Q466.0 43 416.5 16.5Q367.0 -10 300.0 -10ZM300.0 67Q360.0 67 396.5 105.5Q433.0 144 433.0 205V525Q433.0 586 396.5 624.5Q360.0 663 300.0 663Q240.0 663 203.5 624.5Q167.0 586 167.0 525V205Q167.0 144 203.5 105.5Q240.0 67 300.0 67ZM300.0 310Q273.0 310 256.5 325.0Q240.0 340 240.0 368Q240.0 395 256.5 409.5Q273.0 424 300.0 424Q327.0 424 343.5 409.5Q360.0 395 360.0 368Q360.0 340 343.5 325.0Q327.0 310 300.0 310ZM901.0 -10Q831.0 -10 777.5 19.5Q724.0 49 694.0 101.5Q664.0 154 664.0 223Q664.0 271 682.0 321.5Q700.0 372 731.0 427L900.0 730H1000.0L820.0 417L823.0 415Q836.0 432 862.0 441.0Q888.0 450 919.0 450Q984.0 450 1032.5 421.5Q1081.0 393 1108.5 343.0Q1136.0 293 1136.0 227Q1136.0 157 1106.0 103.5Q1076.0 50 1023.5 20.0Q971.0 -10 901.0 -10ZM900.0 70Q965.0 70 1005.5 113.0Q1046.0 156 1046.0 225Q1046.0 294 1005.5 337.0Q965.0 380 900.0 380Q835.0 380 794.5 337.0Q754.0 294 754.0 225Q754.0 156 794.5 113.0Q835.0 70 900.0 70ZM1340.0 290V370H1660.0V290ZM2052.0 -10Q1967.0 -10 1917.0 37.5Q1867.0 85 1867.0 162Q1867.0 213 1890.0 251.0Q1913.0 289 1954.0 310.5Q1995.0 332 2048.0 332H2218.0V375Q2218.0 482 2101.0 482Q2049.0 482 2017.0 463.0Q1985.0 444 1983.0 410H1893.0Q1898.0 475 1953.5 517.5Q2009.0 560 2101.0 560Q2201.0 560 2254.5 512.0Q2308.0 464 2308.0 378V0H2219.0V100H2217.0Q2209.0 49 2166.0 19.5Q2123.0 -10 2052.0 -10ZM2074.0 66Q2140.0 66 2179.0 98.0Q2218.0 130 2218.0 185V262H2058.0Q2014.0 262 1986.5 235.5Q1959.0 209 1959.0 165Q1959.0 119 1989.5 92.5Q2020.0 66 2074.0 66ZM2512.0 0V550H2602.0V445H2604.0Q2611.0 498 2649.0 529.0Q2687.0 560 2751.0 560Q2837.0 560 2883.5 508.5Q2930.0 457 2930.0 362V315H2840.0V362Q2840.0 482 2723.0 482Q2664.0 482 2633.0 448.0Q2602.0 414 2602.0 350V0ZM3308.0 -10Q3208.0 -10 3148.0 46.0Q3088.0 102 3088.0 200V350Q3088.0 448 3148.0 504.0Q3208.0 560 3308.0 560Q3403.0 560 3461.5 509.0Q3520.0 458 3523.0 370H3433.0Q3430.0 423 3397.0 451.5Q3364.0 480 3308.0 480Q3249.0 480 3213.5 446.5Q3178.0 413 3178.0 351V200Q3178.0 138 3213.5 104.0Q3249.0 70 3308.0 70Q3364.0 70 3397.0 99.0Q3430.0 128 3433.0 180H3523.0Q3520.0 92 3461.5 41.0Q3403.0 -10 3308.0 -10ZM3692.0 0V730H3782.0V445H3783.0Q3790.0 500 3828.0 530.0Q3866.0 560 3929.0 560Q4012.0 560 4061.0 509.0Q4110.0 458 4110.0 370V0H4020.0V355Q4020.0 417 3988.5 450.5Q3957.0 484 3903.0 484Q3847.0 484 3814.5 449.0Q3782.0 414 3782.0 350V0ZM4285.0 0V82H4480.0V468H4305.0V550H4570.0V82H4755.0V0ZM4515.0 649Q4482.0 649 4463.0 666.0Q4444.0 683 4444.0 712Q4444.0 742 4463.0 759.5Q4482.0 777 4515.0 777Q4548.0 777 4567.0 759.5Q4586.0 742 4586.0 712Q4586.0 683 4567.0 666.0Q4548.0 649 4515.0 649ZM5041.0 0 4854.0 550H4951.0L5071.0 180Q5082.0 147 5090.0 116.5Q5098.0 86 5102.0 69Q5107.0 86 5114.0 116.5Q5121.0 147 5131.0 180L5251.0 550H5346.0L5159.0 0ZM5700.0 -10Q5603.0 -10 5543.5 48.5Q5484.0 107 5484.0 210V340Q5484.0 443 5543.5 501.5Q5603.0 560 5700.0 560Q5765.0 560 5813.5 534.0Q5862.0 508 5889.0 461.0Q5916.0 414 5916.0 350V252H5572.0V200Q5572.0 139 5607.0 103.5Q5642.0 68 5700.0 68Q5750.0 68 5782.5 87.5Q5815.0 107 5822.0 140H5912.0Q5903.0 71 5845.0 30.5Q5787.0 -10 5700.0 -10ZM5572.0 322H5828.0V350Q5828.0 415 5794.5 450.5Q5761.0 486 5700.0 486Q5639.0 486 5605.5 450.5Q5572.0 415 5572.0 350ZM6075.0 -110 6430.0 830H6525.0L6170.0 -110Z" fill="#71717a"/>
    <path transform="translate(409.01 652.02) scale(0.01099 -0.01099)" d="M304.0 -10Q198.0 -10 135.0 46.0Q72.0 102 72.0 200H162.0Q162.0 139 201.0 104.5Q240.0 70 304.0 70Q366.0 70 403.0 106.0Q440.0 142 440.0 200Q440.0 244 416.5 276.5Q393.0 309 349.0 321L238.0 352Q169.0 372 129.5 423.5Q90.0 475 90.0 545Q90.0 603 116.0 647.0Q142.0 691 189.0 715.5Q236.0 740 297.0 740Q359.0 740 406.5 715.5Q454.0 691 481.0 647.5Q508.0 604 508.0 547H418.0Q418.0 597 384.0 628.5Q350.0 660 297.0 660Q244.0 660 211.0 628.5Q178.0 597 178.0 547Q178.0 507 199.5 478.5Q221.0 450 260.0 439L374.0 407Q447.0 387 487.5 331.5Q528.0 276 528.0 200Q528.0 104 467.0 47.0Q406.0 -10 304.0 -10ZM900.0 -10Q803.0 -10 743.5 48.5Q684.0 107 684.0 210V340Q684.0 443 743.5 501.5Q803.0 560 900.0 560Q965.0 560 1013.5 534.0Q1062.0 508 1089.0 461.0Q1116.0 414 1116.0 350V252H772.0V200Q772.0 139 807.0 103.5Q842.0 68 900.0 68Q950.0 68 982.5 87.5Q1015.0 107 1022.0 140H1112.0Q1103.0 71 1045.0 30.5Q987.0 -10 900.0 -10ZM772.0 322H1028.0V350Q1028.0 415 994.5 450.5Q961.0 486 900.0 486Q839.0 486 805.5 450.5Q772.0 415 772.0 350ZM1555.0 0Q1487.0 0 1446.0 39.5Q1405.0 79 1405.0 145V468H1247.0V550H1405.0V705H1495.0V550H1720.0V468H1495.0V145Q1495.0 117 1511.5 99.5Q1528.0 82 1555.0 82H1715.0V0ZM2652.0 -10Q2567.0 -10 2517.0 37.5Q2467.0 85 2467.0 162Q2467.0 213 2490.0 251.0Q2513.0 289 2554.0 310.5Q2595.0 332 2648.0 332H2818.0V375Q2818.0 482 2701.0 482Q2649.0 482 2617.0 463.0Q2585.0 444 2583.0 410H2493.0Q2498.0 475 2553.5 517.5Q2609.0 560 2701.0 560Q2801.0 560 2854.5 512.0Q2908.0 464 2908.0 378V0H2819.0V100H2817.0Q2809.0 49 2766.0 19.5Q2723.0 -10 2652.0 -10ZM2674.0 66Q2740.0 66 2779.0 98.0Q2818.0 130 2818.0 185V262H2658.0Q2614.0 262 2586.5 235.5Q2559.0 209 2559.0 165Q2559.0 119 2589.5 92.5Q2620.0 66 2674.0 66ZM3278.0 -8Q3186.0 -8 3135.5 33.5Q3085.0 75 3085.0 151H3175.0Q3175.0 113 3202.0 91.5Q3229.0 70 3278.0 70H3322.0Q3372.0 70 3399.5 92.0Q3427.0 114 3427.0 154Q3427.0 225 3362.0 234L3210.0 256Q3154.0 264 3123.0 302.5Q3092.0 341 3092.0 404Q3092.0 476 3141.5 517.0Q3191.0 558 3278.0 558H3322.0Q3402.0 558 3452.5 518.5Q3503.0 479 3507.0 415H3416.0Q3414.0 444 3388.5 463.0Q3363.0 482 3322.0 482H3278.0Q3232.0 482 3206.0 461.0Q3180.0 440 3180.0 404Q3180.0 346 3233.0 338L3375.0 318Q3515.0 298 3515.0 154Q3515.0 77 3464.5 34.5Q3414.0 -8 3322.0 -8ZM3685.0 0V82H3880.0V468H3705.0V550H3970.0V82H4155.0V0ZM3915.0 649Q3882.0 649 3863.0 666.0Q3844.0 683 3844.0 712Q3844.0 742 3863.0 759.5Q3882.0 777 3915.0 777Q3948.0 777 3967.0 759.5Q3986.0 742 3986.0 712Q3986.0 683 3967.0 666.0Q3948.0 649 3915.0 649ZM4468.0 -10Q4386.0 -10 4336.5 45.0Q4287.0 100 4287.0 194V355Q4287.0 450 4336.0 505.0Q4385.0 560 4468.0 560Q4530.0 560 4570.5 529.0Q4611.0 498 4619.0 445H4620.0L4618.0 570V730H4708.0V0H4618.0V105H4617.0Q4610.0 51 4570.0 20.5Q4530.0 -10 4468.0 -10ZM4498.0 68Q4554.0 68 4586.0 103.0Q4618.0 138 4618.0 200V350Q4618.0 412 4586.0 447.0Q4554.0 482 4498.0 482Q4441.0 482 4409.0 452.5Q4377.0 423 4377.0 355V195Q4377.0 128 4409.0 98.0Q4441.0 68 4498.0 68ZM5100.0 -10Q5003.0 -10 4943.5 48.5Q4884.0 107 4884.0 210V340Q4884.0 443 4943.5 501.5Q5003.0 560 5100.0 560Q5165.0 560 5213.5 534.0Q5262.0 508 5289.0 461.0Q5316.0 414 5316.0 350V252H4972.0V200Q4972.0 139 5007.0 103.5Q5042.0 68 5100.0 68Q5150.0 68 5182.5 87.5Q5215.0 107 5222.0 140H5312.0Q5303.0 71 5245.0 30.5Q5187.0 -10 5100.0 -10ZM4972.0 322H5228.0V350Q5228.0 415 5194.5 450.5Q5161.0 486 5100.0 486Q5039.0 486 5005.5 450.5Q4972.0 415 4972.0 350ZM6000.0 290V370H6600.0V290ZM7292.0 0V550H7382.0V445H7383.0Q7390.0 500 7428.0 530.0Q7466.0 560 7529.0 560Q7612.0 560 7661.0 509.0Q7710.0 458 7710.0 370V0H7620.0V354Q7620.0 417 7588.5 450.5Q7557.0 484 7503.0 484Q7447.0 484 7414.5 449.0Q7382.0 414 7382.0 350V0ZM8100.0 -10Q8003.0 -10 7943.5 48.5Q7884.0 107 7884.0 210V340Q7884.0 443 7943.5 501.5Q8003.0 560 8100.0 560Q8165.0 560 8213.5 534.0Q8262.0 508 8289.0 461.0Q8316.0 414 8316.0 350V252H7972.0V200Q7972.0 139 8007.0 103.5Q8042.0 68 8100.0 68Q8150.0 68 8182.5 87.5Q8215.0 107 8222.0 140H8312.0Q8303.0 71 8245.0 30.5Q8187.0 -10 8100.0 -10ZM7972.0 322H8228.0V350Q8228.0 415 8194.5 450.5Q8161.0 486 8100.0 486Q8039.0 486 8005.5 450.5Q7972.0 415 7972.0 350ZM8641.0 0 8454.0 550H8551.0L8671.0 180Q8682.0 147 8690.0 116.5Q8698.0 86 8702.0 69Q8707.0 86 8714.0 116.5Q8721.0 147 8731.0 180L8851.0 550H8946.0L8759.0 0ZM9300.0 -10Q9203.0 -10 9143.5 48.5Q9084.0 107 9084.0 210V340Q9084.0 443 9143.5 501.5Q9203.0 560 9300.0 560Q9365.0 560 9413.5 534.0Q9462.0 508 9489.0 461.0Q9516.0 414 9516.0 350V252H9172.0V200Q9172.0 139 9207.0 103.5Q9242.0 68 9300.0 68Q9350.0 68 9382.5 87.5Q9415.0 107 9422.0 140H9512.0Q9503.0 71 9445.0 30.5Q9387.0 -10 9300.0 -10ZM9172.0 322H9428.0V350Q9428.0 415 9394.5 450.5Q9361.0 486 9300.0 486Q9239.0 486 9205.5 450.5Q9172.0 415 9172.0 350ZM9712.0 0V550H9802.0V445H9804.0Q9811.0 498 9849.0 529.0Q9887.0 560 9951.0 560Q10037.0 560 10083.5 508.5Q10130.0 457 10130.0 362V315H10040.0V362Q10040.0 482 9923.0 482Q9864.0 482 9833.0 448.0Q9802.0 414 9802.0 350V0ZM11068.0 -10Q10986.0 -10 10936.5 45.0Q10887.0 100 10887.0 194V355Q10887.0 450 10936.0 505.0Q10985.0 560 11068.0 560Q11130.0 560 11170.5 529.0Q11211.0 498 11219.0 445H11220.0L11218.0 570V730H11308.0V0H11218.0V105H11217.0Q11210.0 51 11170.0 20.5Q11130.0 -10 11068.0 -10ZM11098.0 68Q11154.0 68 11186.0 103.0Q11218.0 138 11218.0 200V350Q11218.0 412 11186.0 447.0Q11154.0 482 11098.0 482Q11041.0 482 11009.0 452.5Q10977.0 423 10977.0 355V195Q10977.0 128 11009.0 98.0Q11041.0 68 11098.0 68ZM11700.0 -10Q11603.0 -10 11543.5 48.5Q11484.0 107 11484.0 210V340Q11484.0 443 11543.5 501.5Q11603.0 560 11700.0 560Q11765.0 560 11813.5 534.0Q11862.0 508 11889.0 461.0Q11916.0 414 11916.0 350V252H11572.0V200Q11572.0 139 11607.0 103.5Q11642.0 68 11700.0 68Q11750.0 68 11782.5 87.5Q11815.0 107 11822.0 140H11912.0Q11903.0 71 11845.0 30.5Q11787.0 -10 11700.0 -10ZM11572.0 322H11828.0V350Q11828.0 415 11794.5 450.5Q11761.0 486 11700.0 486Q11639.0 486 11605.5 450.5Q11572.0 415 11572.0 350ZM12380.0 0Q12307.0 0 12263.5 42.5Q12220.0 85 12220.0 155V648H12030.0V730H12310.0V155Q12310.0 121 12329.0 101.5Q12348.0 82 12380.0 82H12550.0V0ZM12900.0 -10Q12803.0 -10 12743.5 48.5Q12684.0 107 12684.0 210V340Q12684.0 443 12743.5 501.5Q12803.0 560 12900.0 560Q12965.0 560 13013.5 534.0Q13062.0 508 13089.0 461.0Q13116.0 414 13116.0 350V252H12772.0V200Q12772.0 139 12807.0 103.5Q12842.0 68 12900.0 68Q12950.0 68 12982.5 87.5Q13015.0 107 13022.0 140H13112.0Q13103.0 71 13045.0 30.5Q12987.0 -10 12900.0 -10ZM12772.0 322H13028.0V350Q13028.0 415 12994.5 450.5Q12961.0 486 12900.0 486Q12839.0 486 12805.5 450.5Q12772.0 415 12772.0 350ZM13555.0 0Q13487.0 0 13446.0 39.5Q13405.0 79 13405.0 145V468H13247.0V550H13405.0V705H13495.0V550H13720.0V468H13495.0V145Q13495.0 117 13511.5 99.5Q13528.0 82 13555.0 82H13715.0V0ZM14100.0 -10Q14003.0 -10 13943.5 48.5Q13884.0 107 13884.0 210V340Q13884.0 443 13943.5 501.5Q14003.0 560 14100.0 560Q14165.0 560 14213.5 534.0Q14262.0 508 14289.0 461.0Q14316.0 414 14316.0 350V252H13972.0V200Q13972.0 139 14007.0 103.5Q14042.0 68 14100.0 68Q14150.0 68 14182.5 87.5Q14215.0 107 14222.0 140H14312.0Q14303.0 71 14245.0 30.5Q14187.0 -10 14100.0 -10ZM13972.0 322H14228.0V350Q14228.0 415 14194.5 450.5Q14161.0 486 14100.0 486Q14039.0 486 14005.5 450.5Q13972.0 415 13972.0 350ZM14668.0 -10Q14586.0 -10 14536.5 45.0Q14487.0 100 14487.0 194V355Q14487.0 450 14536.0 505.0Q14585.0 560 14668.0 560Q14730.0 560 14770.5 529.0Q14811.0 498 14819.0 445H14820.0L14818.0 570V730H14908.0V0H14818.0V105H14817.0Q14810.0 51 14770.0 20.5Q14730.0 -10 14668.0 -10ZM14698.0 68Q14754.0 68 14786.0 103.0Q14818.0 138 14818.0 200V350Q14818.0 412 14786.0 447.0Q14754.0 482 14698.0 482Q14641.0 482 14609.0 452.5Q14577.0 423 14577.0 355V195Q14577.0 128 14609.0 98.0Q14641.0 68 14698.0 68ZM15210.0 -160 15265.0 146H15373.0L15303.0 -160ZM16500.0 -8Q16401.0 -8 16342.5 50.0Q16284.0 108 16284.0 212V338Q16284.0 443 16342.0 500.5Q16400.0 558 16500.0 558Q16600.0 558 16658.0 500.5Q16716.0 443 16716.0 338V212Q16716.0 108 16657.5 50.0Q16599.0 -8 16500.0 -8ZM16500.0 72Q16559.0 72 16592.5 105.0Q16626.0 138 16626.0 202V348Q16626.0 412 16592.5 445.0Q16559.0 478 16500.0 478Q16442.0 478 16408.0 445.0Q16374.0 412 16374.0 348V202Q16374.0 138 16408.0 105.0Q16442.0 72 16500.0 72ZM16892.0 0V550H16982.0V445H16983.0Q16990.0 500 17028.0 530.0Q17066.0 560 17129.0 560Q17212.0 560 17261.0 509.0Q17310.0 458 17310.0 370V0H17220.0V354Q17220.0 417 17188.5 450.5Q17157.0 484 17103.0 484Q17047.0 484 17014.5 449.0Q16982.0 414 16982.0 350V0ZM17700.0 -10Q17603.0 -10 17543.5 48.5Q17484.0 107 17484.0 210V340Q17484.0 443 17543.5 501.5Q17603.0 560 17700.0 560Q17765.0 560 17813.5 534.0Q17862.0 508 17889.0 461.0Q17916.0 414 17916.0 350V252H17572.0V200Q17572.0 139 17607.0 103.5Q17642.0 68 17700.0 68Q17750.0 68 17782.5 87.5Q17815.0 107 17822.0 140H17912.0Q17903.0 71 17845.0 30.5Q17787.0 -10 17700.0 -10ZM17572.0 322H17828.0V350Q17828.0 415 17794.5 450.5Q17761.0 486 17700.0 486Q17639.0 486 17605.5 450.5Q17572.0 415 17572.0 350ZM18712.0 0V550H18802.0V445H18804.0Q18811.0 498 18849.0 529.0Q18887.0 560 18951.0 560Q19037.0 560 19083.5 508.5Q19130.0 457 19130.0 362V315H19040.0V362Q19040.0 482 18923.0 482Q18864.0 482 18833.0 448.0Q18802.0 414 18802.0 350V0ZM19500.0 -10Q19403.0 -10 19343.5 48.5Q19284.0 107 19284.0 210V340Q19284.0 443 19343.5 501.5Q19403.0 560 19500.0 560Q19565.0 560 19613.5 534.0Q19662.0 508 19689.0 461.0Q19716.0 414 19716.0 350V252H19372.0V200Q19372.0 139 19407.0 103.5Q19442.0 68 19500.0 68Q19550.0 68 19582.5 87.5Q19615.0 107 19622.0 140H19712.0Q19703.0 71 19645.0 30.5Q19587.0 -10 19500.0 -10ZM19372.0 322H19628.0V350Q19628.0 415 19594.5 450.5Q19561.0 486 19500.0 486Q19439.0 486 19405.5 450.5Q19372.0 415 19372.0 350ZM20108.0 -10Q20008.0 -10 19948.0 46.0Q19888.0 102 19888.0 200V350Q19888.0 448 19948.0 504.0Q20008.0 560 20108.0 560Q20203.0 560 20261.5 509.0Q20320.0 458 20323.0 370H20233.0Q20230.0 423 20197.0 451.5Q20164.0 480 20108.0 480Q20049.0 480 20013.5 446.5Q19978.0 413 19978.0 351V200Q19978.0 138 20013.5 104.0Q20049.0 70 20108.0 70Q20164.0 70 20197.0 99.0Q20230.0 128 20233.0 180H20323.0Q20320.0 92 20261.5 41.0Q20203.0 -10 20108.0 -10ZM20652.0 -10Q20567.0 -10 20517.0 37.5Q20467.0 85 20467.0 162Q20467.0 213 20490.0 251.0Q20513.0 289 20554.0 310.5Q20595.0 332 20648.0 332H20818.0V375Q20818.0 482 20701.0 482Q20649.0 482 20617.0 463.0Q20585.0 444 20583.0 410H20493.0Q20498.0 475 20553.5 517.5Q20609.0 560 20701.0 560Q20801.0 560 20854.5 512.0Q20908.0 464 20908.0 378V0H20819.0V100H20817.0Q20809.0 49 20766.0 19.5Q20723.0 -10 20652.0 -10ZM20674.0 66Q20740.0 66 20779.0 98.0Q20818.0 130 20818.0 185V262H20658.0Q20614.0 262 20586.5 235.5Q20559.0 209 20559.0 165Q20559.0 119 20589.5 92.5Q20620.0 66 20674.0 66ZM21380.0 0Q21307.0 0 21263.5 42.5Q21220.0 85 21220.0 155V648H21030.0V730H21310.0V155Q21310.0 121 21329.0 101.5Q21348.0 82 21380.0 82H21550.0V0ZM21980.0 0Q21907.0 0 21863.5 42.5Q21820.0 85 21820.0 155V648H21630.0V730H21910.0V155Q21910.0 121 21929.0 101.5Q21948.0 82 21980.0 82H22150.0V0ZM23052.0 -10Q22967.0 -10 22917.0 37.5Q22867.0 85 22867.0 162Q22867.0 213 22890.0 251.0Q22913.0 289 22954.0 310.5Q22995.0 332 23048.0 332H23218.0V375Q23218.0 482 23101.0 482Q23049.0 482 23017.0 463.0Q22985.0 444 22983.0 410H22893.0Q22898.0 475 22953.5 517.5Q23009.0 560 23101.0 560Q23201.0 560 23254.5 512.0Q23308.0 464 23308.0 378V0H23219.0V100H23217.0Q23209.0 49 23166.0 19.5Q23123.0 -10 23052.0 -10ZM23074.0 66Q23140.0 66 23179.0 98.0Q23218.0 130 23218.0 185V262H23058.0Q23014.0 262 22986.5 235.5Q22959.0 209 22959.0 165Q22959.0 119 22989.5 92.5Q23020.0 66 23074.0 66ZM23521.0 0 23431.0 550H23509.0L23565.0 162Q23568.0 140 23571.0 113.5Q23574.0 87 23575.0 70Q23577.0 87 23579.5 113.5Q23582.0 140 23586.0 162L23655.0 550H23745.0L23814.0 162Q23818.0 140 23821.5 113.5Q23825.0 87 23826.0 70Q23828.0 87 23831.0 113.5Q23834.0 140 23837.0 162L23895.0 550H23969.0L23875.0 0H23776.0L23713.0 380Q23709.0 408 23705.5 439.5Q23702.0 471 23700.0 488Q23699.0 471 23695.0 439.5Q23691.0 408 23686.0 380L23620.0 0ZM24252.0 -10Q24167.0 -10 24117.0 37.5Q24067.0 85 24067.0 162Q24067.0 213 24090.0 251.0Q24113.0 289 24154.0 310.5Q24195.0 332 24248.0 332H24418.0V375Q24418.0 482 24301.0 482Q24249.0 482 24217.0 463.0Q24185.0 444 24183.0 410H24093.0Q24098.0 475 24153.5 517.5Q24209.0 560 24301.0 560Q24401.0 560 24454.5 512.0Q24508.0 464 24508.0 378V0H24419.0V100H24417.0Q24409.0 49 24366.0 19.5Q24323.0 -10 24252.0 -10ZM24274.0 66Q24340.0 66 24379.0 98.0Q24418.0 130 24418.0 185V262H24258.0Q24214.0 262 24186.5 235.5Q24159.0 209 24159.0 165Q24159.0 119 24189.5 92.5Q24220.0 66 24274.0 66ZM24778.0 -180 24859.0 34 24654.0 550H24751.0L24881.0 210Q24889.0 190 24896.0 168.0Q24903.0 146 24906.0 130Q24909.0 146 24916.0 168.0Q24923.0 190 24930.0 210L25051.0 550H25146.0L24872.0 -180ZM25500.0 -10Q25463.0 -10 25440.5 12.0Q25418.0 34 25418.0 69Q25418.0 106 25440.5 129.0Q25463.0 152 25500.0 152Q25537.0 152 25559.5 129.0Q25582.0 106 25582.0 69Q25582.0 34 25559.5 12.0Q25537.0 -10 25500.0 -10Z" fill="#71717a"/>
    <path transform="translate(409.31 673.81) scale(0.00941 -0.00941)" d="M60.0 0V550H138.0V477H140.0Q145.0 514 169.5 537.0Q194.0 560 232.0 560Q268.0 560 293.0 539.0Q318.0 518 329.0 482H330.0Q337.0 518 361.5 539.0Q386.0 560 424.0 560Q477.0 560 508.5 520.5Q540.0 481 540.0 418V0H456.0V419Q456.0 452 440.0 471.5Q424.0 491 396.0 491Q369.0 491 353.0 472.0Q337.0 453 337.0 420V0H263.0V419Q263.0 452 247.0 471.5Q231.0 491 204.0 491Q176.0 491 160.0 472.0Q144.0 453 144.0 420V0ZM852.0 -10Q767.0 -10 717.0 37.5Q667.0 85 667.0 162Q667.0 213 690.0 251.0Q713.0 289 754.0 310.5Q795.0 332 848.0 332H1018.0V375Q1018.0 482 901.0 482Q849.0 482 817.0 463.0Q785.0 444 783.0 410H693.0Q698.0 475 753.5 517.5Q809.0 560 901.0 560Q1001.0 560 1054.5 512.0Q1108.0 464 1108.0 378V0H1019.0V100H1017.0Q1009.0 49 966.0 19.5Q923.0 -10 852.0 -10ZM874.0 66Q940.0 66 979.0 98.0Q1018.0 130 1018.0 185V262H858.0Q814.0 262 786.5 235.5Q759.0 209 759.0 165Q759.0 119 789.5 92.5Q820.0 66 874.0 66ZM1292.0 0V550H1382.0V445H1383.0Q1390.0 500 1428.0 530.0Q1466.0 560 1529.0 560Q1612.0 560 1661.0 509.0Q1710.0 458 1710.0 370V0H1620.0V354Q1620.0 417 1588.5 450.5Q1557.0 484 1503.0 484Q1447.0 484 1414.5 449.0Q1382.0 414 1382.0 350V0ZM2099.0 -10Q2004.0 -10 1947.0 46.5Q1890.0 103 1890.0 200V550H1980.0V200Q1980.0 140 2012.0 104.5Q2044.0 69 2099.0 69Q2155.0 69 2187.5 104.5Q2220.0 140 2220.0 200V550H2310.0V200Q2310.0 103 2252.0 46.5Q2194.0 -10 2099.0 -10ZM2652.0 -10Q2567.0 -10 2517.0 37.5Q2467.0 85 2467.0 162Q2467.0 213 2490.0 251.0Q2513.0 289 2554.0 310.5Q2595.0 332 2648.0 332H2818.0V375Q2818.0 482 2701.0 482Q2649.0 482 2617.0 463.0Q2585.0 444 2583.0 410H2493.0Q2498.0 475 2553.5 517.5Q2609.0 560 2701.0 560Q2801.0 560 2854.5 512.0Q2908.0 464 2908.0 378V0H2819.0V100H2817.0Q2809.0 49 2766.0 19.5Q2723.0 -10 2652.0 -10ZM2674.0 66Q2740.0 66 2779.0 98.0Q2818.0 130 2818.0 185V262H2658.0Q2614.0 262 2586.5 235.5Q2559.0 209 2559.0 165Q2559.0 119 2589.5 92.5Q2620.0 66 2674.0 66ZM3380.0 0Q3307.0 0 3263.5 42.5Q3220.0 85 3220.0 155V648H3030.0V730H3310.0V155Q3310.0 121 3329.0 101.5Q3348.0 82 3380.0 82H3550.0V0ZM4500.0 260Q4463.0 260 4440.5 282.0Q4418.0 304 4418.0 339Q4418.0 376 4440.5 399.0Q4463.0 422 4500.0 422Q4537.0 422 4559.5 399.0Q4582.0 376 4582.0 339Q4582.0 304 4559.5 282.0Q4537.0 260 4500.0 260ZM5492.0 0V550H5582.0V445H5583.0Q5590.0 500 5628.0 530.0Q5666.0 560 5729.0 560Q5812.0 560 5861.0 509.0Q5910.0 458 5910.0 370V0H5820.0V354Q5820.0 417 5788.5 450.5Q5757.0 484 5703.0 484Q5647.0 484 5614.5 449.0Q5582.0 414 5582.0 350V0ZM6300.0 -10Q6203.0 -10 6143.5 48.5Q6084.0 107 6084.0 210V340Q6084.0 443 6143.5 501.5Q6203.0 560 6300.0 560Q6365.0 560 6413.5 534.0Q6462.0 508 6489.0 461.0Q6516.0 414 6516.0 350V252H6172.0V200Q6172.0 139 6207.0 103.5Q6242.0 68 6300.0 68Q6350.0 68 6382.5 87.5Q6415.0 107 6422.0 140H6512.0Q6503.0 71 6445.0 30.5Q6387.0 -10 6300.0 -10ZM6172.0 322H6428.0V350Q6428.0 415 6394.5 450.5Q6361.0 486 6300.0 486Q6239.0 486 6205.5 450.5Q6172.0 415 6172.0 350ZM6841.0 0 6654.0 550H6751.0L6871.0 180Q6882.0 147 6890.0 116.5Q6898.0 86 6902.0 69Q6907.0 86 6914.0 116.5Q6921.0 147 6931.0 180L7051.0 550H7146.0L6959.0 0ZM7500.0 -10Q7403.0 -10 7343.5 48.5Q7284.0 107 7284.0 210V340Q7284.0 443 7343.5 501.5Q7403.0 560 7500.0 560Q7565.0 560 7613.5 534.0Q7662.0 508 7689.0 461.0Q7716.0 414 7716.0 350V252H7372.0V200Q7372.0 139 7407.0 103.5Q7442.0 68 7500.0 68Q7550.0 68 7582.5 87.5Q7615.0 107 7622.0 140H7712.0Q7703.0 71 7645.0 30.5Q7587.0 -10 7500.0 -10ZM7372.0 322H7628.0V350Q7628.0 415 7594.5 450.5Q7561.0 486 7500.0 486Q7439.0 486 7405.5 450.5Q7372.0 415 7372.0 350ZM7912.0 0V550H8002.0V445H8004.0Q8011.0 498 8049.0 529.0Q8087.0 560 8151.0 560Q8237.0 560 8283.5 508.5Q8330.0 457 8330.0 362V315H8240.0V362Q8240.0 482 8123.0 482Q8064.0 482 8033.0 448.0Q8002.0 414 8002.0 350V0ZM9252.0 -10Q9167.0 -10 9117.0 37.5Q9067.0 85 9067.0 162Q9067.0 213 9090.0 251.0Q9113.0 289 9154.0 310.5Q9195.0 332 9248.0 332H9418.0V375Q9418.0 482 9301.0 482Q9249.0 482 9217.0 463.0Q9185.0 444 9183.0 410H9093.0Q9098.0 475 9153.5 517.5Q9209.0 560 9301.0 560Q9401.0 560 9454.5 512.0Q9508.0 464 9508.0 378V0H9419.0V100H9417.0Q9409.0 49 9366.0 19.5Q9323.0 -10 9252.0 -10ZM9274.0 66Q9340.0 66 9379.0 98.0Q9418.0 130 9418.0 185V262H9258.0Q9214.0 262 9186.5 235.5Q9159.0 209 9159.0 165Q9159.0 119 9189.5 92.5Q9220.0 66 9274.0 66ZM9899.0 -10Q9804.0 -10 9747.0 46.5Q9690.0 103 9690.0 200V550H9780.0V200Q9780.0 140 9812.0 104.5Q9844.0 69 9899.0 69Q9955.0 69 9987.5 104.5Q10020.0 140 10020.0 200V550H10110.0V200Q10110.0 103 10052.0 46.5Q9994.0 -10 9899.0 -10ZM10555.0 0Q10487.0 0 10446.0 39.5Q10405.0 79 10405.0 145V468H10247.0V550H10405.0V705H10495.0V550H10720.0V468H10495.0V145Q10495.0 117 10511.5 99.5Q10528.0 82 10555.0 82H10715.0V0ZM11100.0 -8Q11001.0 -8 10942.5 50.0Q10884.0 108 10884.0 212V338Q10884.0 443 10942.0 500.5Q11000.0 558 11100.0 558Q11200.0 558 11258.0 500.5Q11316.0 443 11316.0 338V212Q11316.0 108 11257.5 50.0Q11199.0 -8 11100.0 -8ZM11100.0 72Q11159.0 72 11192.5 105.0Q11226.0 138 11226.0 202V348Q11226.0 412 11192.5 445.0Q11159.0 478 11100.0 478Q11042.0 478 11008.0 445.0Q10974.0 412 10974.0 348V202Q10974.0 138 11008.0 105.0Q11042.0 72 11100.0 72ZM11540.0 290V370H11860.0V290ZM12268.0 -10Q12186.0 -10 12136.5 45.0Q12087.0 100 12087.0 194V355Q12087.0 450 12136.0 505.0Q12185.0 560 12268.0 560Q12330.0 560 12370.5 529.0Q12411.0 498 12419.0 445H12420.0L12418.0 570V730H12508.0V0H12418.0V105H12417.0Q12410.0 51 12370.0 20.5Q12330.0 -10 12268.0 -10ZM12298.0 68Q12354.0 68 12386.0 103.0Q12418.0 138 12418.0 200V350Q12418.0 412 12386.0 447.0Q12354.0 482 12298.0 482Q12241.0 482 12209.0 452.5Q12177.0 423 12177.0 355V195Q12177.0 128 12209.0 98.0Q12241.0 68 12298.0 68ZM12900.0 -10Q12803.0 -10 12743.5 48.5Q12684.0 107 12684.0 210V340Q12684.0 443 12743.5 501.5Q12803.0 560 12900.0 560Q12965.0 560 13013.5 534.0Q13062.0 508 13089.0 461.0Q13116.0 414 13116.0 350V252H12772.0V200Q12772.0 139 12807.0 103.5Q12842.0 68 12900.0 68Q12950.0 68 12982.5 87.5Q13015.0 107 13022.0 140H13112.0Q13103.0 71 13045.0 30.5Q12987.0 -10 12900.0 -10ZM12772.0 322H13028.0V350Q13028.0 415 12994.5 450.5Q12961.0 486 12900.0 486Q12839.0 486 12805.5 450.5Q12772.0 415 12772.0 350ZM13580.0 0Q13507.0 0 13463.5 42.5Q13420.0 85 13420.0 155V648H13230.0V730H13510.0V155Q13510.0 121 13529.0 101.5Q13548.0 82 13580.0 82H13750.0V0ZM14100.0 -10Q14003.0 -10 13943.5 48.5Q13884.0 107 13884.0 210V340Q13884.0 443 13943.5 501.5Q14003.0 560 14100.0 560Q14165.0 560 14213.5 534.0Q14262.0 508 14289.0 461.0Q14316.0 414 14316.0 350V252H13972.0V200Q13972.0 139 14007.0 103.5Q14042.0 68 14100.0 68Q14150.0 68 14182.5 87.5Q14215.0 107 14222.0 140H14312.0Q14303.0 71 14245.0 30.5Q14187.0 -10 14100.0 -10ZM13972.0 322H14228.0V350Q14228.0 415 14194.5 450.5Q14161.0 486 14100.0 486Q14039.0 486 14005.5 450.5Q13972.0 415 13972.0 350ZM14755.0 0Q14687.0 0 14646.0 39.5Q14605.0 79 14605.0 145V468H14447.0V550H14605.0V705H14695.0V550H14920.0V468H14695.0V145Q14695.0 117 14711.5 99.5Q14728.0 82 14755.0 82H14915.0V0ZM15300.0 -10Q15203.0 -10 15143.5 48.5Q15084.0 107 15084.0 210V340Q15084.0 443 15143.5 501.5Q15203.0 560 15300.0 560Q15365.0 560 15413.5 534.0Q15462.0 508 15489.0 461.0Q15516.0 414 15516.0 350V252H15172.0V200Q15172.0 139 15207.0 103.5Q15242.0 68 15300.0 68Q15350.0 68 15382.5 87.5Q15415.0 107 15422.0 140H15512.0Q15503.0 71 15445.0 30.5Q15387.0 -10 15300.0 -10ZM15172.0 322H15428.0V350Q15428.0 415 15394.5 450.5Q15361.0 486 15300.0 486Q15239.0 486 15205.5 450.5Q15172.0 415 15172.0 350ZM15868.0 -10Q15786.0 -10 15736.5 45.0Q15687.0 100 15687.0 194V355Q15687.0 450 15736.0 505.0Q15785.0 560 15868.0 560Q15930.0 560 15970.5 529.0Q16011.0 498 16019.0 445H16020.0L16018.0 570V730H16108.0V0H16018.0V105H16017.0Q16010.0 51 15970.0 20.5Q15930.0 -10 15868.0 -10ZM15898.0 68Q15954.0 68 15986.0 103.0Q16018.0 138 16018.0 200V350Q16018.0 412 15986.0 447.0Q15954.0 482 15898.0 482Q15841.0 482 15809.0 452.5Q15777.0 423 15777.0 355V195Q15777.0 128 15809.0 98.0Q15841.0 68 15898.0 68Z" fill="#a1a1aa"/>
</svg>
